<svg width="8" height="9" viewBox="0 0 8 9" fill="none" xmlns="http://www.w3.org/2000/svg">
<g clip-path="url(#clip0_1672_5150)">
<path d="M7.99338 4.56539C7.97533 4.0059 7.8148 3.48441 7.56213 2.99142C7.3161 2.51172 6.97794 2.10137 6.56284 1.75656C6.0195 1.30346 5.39922 1.01564 4.70295 0.891203C4.37618 0.83231 4.04657 0.838009 3.71601 0.848458C3.15937 0.866506 2.63978 1.02514 2.14868 1.27686C1.66614 1.52383 1.25389 1.86294 0.907175 2.27995C0.453126 2.82519 0.165308 3.44832 0.0408721 4.14744C0.0171247 4.28042 0.0218742 4.41531 0.000976562 4.54829V4.61098C0.0133252 4.66798 0.0133252 4.72592 0.000976562 4.78292V4.90735C0.0133252 4.96434 0.0133252 5.02229 0.000976562 5.07928V5.14197C0.015225 5.22652 0.00857571 5.31201 0.0190245 5.39655C0.0788678 5.85249 0.215652 6.28565 0.427479 6.6922C0.674451 7.1662 1.00501 7.57465 1.41347 7.91851C1.96536 8.38301 2.59703 8.67653 3.3066 8.80191C3.43199 8.82376 3.55928 8.81901 3.68466 8.84086H3.74735C3.80435 8.80951 3.86229 8.82186 3.91929 8.84086H4.07507C4.12731 8.82091 4.17956 8.81331 4.23085 8.84086H4.2774C4.36669 8.82661 4.45787 8.83421 4.54716 8.82281C5.00786 8.76297 5.44576 8.62333 5.85707 8.40771C6.33201 8.15884 6.74142 7.82447 7.08528 7.41222C7.53838 6.86888 7.8262 6.2486 7.95063 5.55233C8.00953 5.22557 8.00383 4.89595 7.99338 4.56634V4.56539ZM3.99528 8.21678C2.14109 8.21583 0.628856 6.7055 0.625056 4.84941C0.621257 2.99427 2.13634 1.47539 3.99433 1.47349C5.85042 1.47159 7.3674 2.98762 7.36835 4.84466C7.36835 6.7017 5.85232 8.21773 3.99528 8.21678Z" fill="white"/>
<path d="M5.26775 6.11364C5.21645 6.0576 5.18701 6.05475 5.12906 6.1089C4.41664 6.75957 3.26917 6.67218 2.67549 5.91322C2.26039 5.38223 2.17205 4.78664 2.44182 4.16921C2.72014 3.53278 3.23023 3.19177 3.92365 3.14998C4.3872 3.12243 4.7966 3.27726 5.14141 3.59263C5.18321 3.63062 5.20696 3.64012 5.2516 3.59263C5.36369 3.47294 5.48147 3.35895 5.59831 3.24402C5.62966 3.21362 5.64011 3.19747 5.60021 3.16138C4.98563 2.60569 4.27131 2.40051 3.46485 2.58574C2.21099 2.87356 1.43968 4.12742 1.7332 5.37083C1.98302 6.42901 2.91961 7.17278 3.99869 7.16993C4.59332 7.16803 5.16421 6.93815 5.60116 6.5278C5.63251 6.4974 5.63631 6.48315 5.60401 6.45086C5.49002 6.34067 5.37604 6.23048 5.26775 6.11364Z" fill="white"/>
</g>
<defs>
<clipPath id="clip0_1672_5150">
<rect width="8" height="8" fill="white" transform="translate(0 0.841797)"/>
</clipPath>
</defs>
</svg>
