<svg width="180" height="287" viewBox="0 0 180 287" fill="none" xmlns="http://www.w3.org/2000/svg">
<g clip-path="url(#clip0_4403_54)">
<path d="M108.505 66.0832C103.573 66.0832 98.7468 67.7854 94.9158 70.8769C92.8494 72.544 91.0739 74.6258 89.736 76.9417C88.3992 74.6258 86.6227 72.5429 84.5562 70.8758C80.7242 67.7832 75.8977 66.0811 70.9652 66.0811C59.0248 66.0811 49.3096 75.7952 49.3096 87.7366V119.483C49.3096 121.073 50.6037 122.368 52.1954 122.368C53.7871 122.368 55.0812 121.074 55.0812 119.483V87.7366C55.0812 78.9786 62.2071 71.8527 70.9652 71.8527C74.6353 71.8527 78.0823 73.068 80.932 75.3675C83.2041 77.202 84.915 79.5988 85.9051 82.3282C82.6451 83.1454 79.6926 85.0116 77.5375 87.6294C75.2184 90.4463 73.9418 94.006 73.9418 97.6521V119.486C73.9418 121.077 75.2359 122.372 76.8276 122.372C78.4192 122.372 79.7134 121.078 79.7134 119.486V97.6521C79.7134 92.1255 84.2095 87.6283 89.7371 87.6283C95.2648 87.6283 99.7609 92.1244 99.7609 97.6521V119.486C99.7609 121.077 101.055 122.372 102.647 122.372C104.238 122.372 105.532 121.078 105.532 119.486V97.6521C105.532 94.006 104.256 90.4474 101.937 87.6305C99.7816 85.0127 96.8291 83.1454 93.5692 82.3293C94.5592 79.5999 96.269 77.2031 98.5411 75.3697C101.391 73.0702 104.837 71.8559 108.507 71.8559C117.266 71.8559 124.391 78.9819 124.391 87.7399V119.486C124.391 121.077 125.685 122.372 127.277 122.372C128.868 122.372 130.162 121.078 130.162 119.486V87.7399C130.162 75.7996 120.448 66.0843 108.507 66.0843L108.505 66.0832Z" fill="#FBF9F1"/>
<path d="M34.6231 46.2052L24.0371 39.6634L26.4908 35.6935C26.9929 34.8807 27.5672 34.2911 28.2127 33.9246C28.8581 33.5593 29.5331 33.3974 30.2375 33.44C30.942 33.4827 31.6301 33.7113 32.3029 34.127C32.9822 34.5471 33.4964 35.0623 33.8464 35.6738C34.1965 36.2854 34.3508 36.9636 34.307 37.7086C34.2632 38.4535 33.9898 39.2335 33.4844 40.0507L31.8588 42.6816L30.2824 41.7069L31.7483 39.3342C32.0425 38.8583 32.2001 38.4174 32.222 38.0127C32.2438 37.6068 32.1552 37.2415 31.9561 36.9166C31.757 36.5917 31.4693 36.3127 31.0941 36.0808C30.7189 35.8489 30.3426 35.7176 29.9662 35.687C29.5899 35.6563 29.2267 35.745 28.8789 35.9506C28.5299 36.1563 28.2083 36.4987 27.9118 36.9778L26.8256 38.7347L35.809 44.2864L34.6242 46.2041L34.6231 46.2052Z" fill="#FBF9F1"/>
<path d="M47.1538 21.3727C48.0738 22.3485 48.6798 23.3549 48.9697 24.392C49.2607 25.4291 49.2662 26.4278 48.9872 27.3861C48.7083 28.3455 48.1722 29.1988 47.3802 29.9459C46.5871 30.6942 45.7032 31.1777 44.7285 31.3987C43.7538 31.6196 42.7573 31.5551 41.7377 31.2039C40.7193 30.8539 39.7511 30.1921 38.8344 29.2195C37.9144 28.2448 37.3084 27.2384 37.0185 26.2003C36.7275 25.1632 36.722 24.1645 37.001 23.2062C37.2799 22.2468 37.8148 21.3935 38.608 20.6464C39.4011 19.8992 40.2839 19.4135 41.2575 19.1914C42.2311 18.9694 43.2277 19.0328 44.2461 19.384C45.2646 19.734 46.2338 20.398 47.1538 21.3727ZM45.5052 22.9283C44.8576 22.2413 44.2034 21.7622 43.5438 21.4909C42.8842 21.2196 42.2508 21.1397 41.6447 21.2524C41.0387 21.3651 40.4884 21.6539 39.9973 22.1177C39.505 22.5815 39.1856 23.1132 39.0368 23.7127C38.8891 24.3121 38.9307 24.9477 39.1637 25.6227C39.3956 26.2965 39.8364 26.9781 40.4841 27.664C41.1317 28.351 41.7858 28.8301 42.4455 29.1014C43.1051 29.3727 43.7385 29.4526 44.3446 29.3399C44.9506 29.2272 45.5009 28.9384 45.992 28.4746C46.4843 28.0107 46.8037 27.4791 46.9514 26.8796C47.0991 26.2812 47.0564 25.6446 46.8245 24.9696C46.5915 24.2946 46.1517 23.6142 45.5041 22.9283H45.5052Z" fill="#FBF9F1"/>
<path d="M60.5116 20.2286L56.7802 22.1933L50.9834 11.1817L54.7903 9.1776C55.8831 8.60219 56.9388 8.32652 57.9572 8.35168C58.9757 8.37684 59.9121 8.68861 60.7665 9.2859C61.6219 9.88428 62.3505 10.7551 62.9522 11.8982C63.556 13.0458 63.8623 14.143 63.8722 15.191C63.8809 16.239 63.6031 17.1929 63.0375 18.0538C62.4719 18.9147 61.6296 19.6389 60.5116 20.2286ZM57.8665 19.4169L59.5063 18.5537C60.2731 18.1501 60.8387 17.672 61.2041 17.1207C61.5683 16.5693 61.7324 15.9458 61.6952 15.249C61.658 14.5521 61.4174 13.7831 60.9743 12.9407C60.5302 12.0984 60.0335 11.4661 59.4822 11.0449C58.9309 10.6238 58.3303 10.4061 57.6805 10.3941C57.0307 10.3809 56.3328 10.5713 55.5867 10.964L53.8878 11.8588L57.8675 19.419L57.8665 19.4169Z" fill="#FBF9F1"/>
<path d="M80.6377 4.87624L78.417 5.35976C78.2748 5.0097 78.0867 4.71106 77.8547 4.46492C77.6228 4.21879 77.3592 4.02516 77.0627 3.88185C76.7663 3.73964 76.4457 3.65213 76.1012 3.6215C75.7566 3.59087 75.3978 3.61603 75.0258 3.69698C74.3651 3.84138 73.8148 4.13346 73.3762 4.57541C72.9375 5.01736 72.6432 5.5873 72.4923 6.28523C72.3413 6.98317 72.3665 7.7894 72.5656 8.70393C72.7679 9.63378 73.0841 10.3853 73.514 10.9574C73.9428 11.5296 74.4471 11.9212 75.0269 12.1334C75.6056 12.3456 76.2237 12.3796 76.8811 12.2363C77.2454 12.1564 77.5758 12.0339 77.8733 11.8676C78.1709 11.7013 78.4269 11.4957 78.6402 11.2495C78.8546 11.0045 79.0187 10.7233 79.1346 10.4083C79.2506 10.0932 79.3031 9.74973 79.2933 9.37889L81.5161 8.9074C81.5588 9.5036 81.4976 10.0845 81.3335 10.6511C81.1683 11.2178 80.9068 11.7429 80.548 12.2253C80.1892 12.7077 79.7363 13.1212 79.1893 13.4669C78.6424 13.8126 78.0068 14.0631 77.2826 14.2217C76.2138 14.4548 75.2063 14.4154 74.259 14.1036C73.3116 13.7918 72.4955 13.2208 71.8086 12.3916C71.1227 11.5624 70.6369 10.4947 70.3525 9.18854C70.067 7.87801 70.0659 6.70421 70.3503 5.66607C70.6337 4.62792 71.1412 3.77027 71.8731 3.09203C72.6049 2.41488 73.5009 1.95981 74.5609 1.72899C75.238 1.5813 75.8878 1.53973 76.5114 1.60318C77.1349 1.66663 77.7136 1.83182 78.2486 2.09874C78.7835 2.36566 79.2561 2.73103 79.6663 3.19596C80.0765 3.65978 80.4003 4.22097 80.6388 4.87734L80.6377 4.87624Z" fill="#FBF9F1"/>
<path d="M90.2735 12.5798L87.8701 12.4594L92.8694 0.25L95.6491 0.38893L99.4079 13.0381L97.0045 12.9178L94.1799 2.87107L94.0826 2.8667L90.2735 12.5809V12.5798ZM90.5973 7.71065L97.1511 8.03993L97.0603 9.84821L90.5065 9.51893L90.5973 7.71065Z" fill="#FBF9F1"/>
<path d="M114.31 7.65382C114.414 7.12982 114.31 6.6649 114 6.25795C113.688 5.84991 113.213 5.54689 112.575 5.3467C112.127 5.20668 111.721 5.15417 111.358 5.18808C110.995 5.22309 110.692 5.3292 110.449 5.50861C110.206 5.68692 110.036 5.9243 109.939 6.22076C109.861 6.46799 109.851 6.701 109.908 6.9176C109.965 7.13529 110.072 7.33767 110.231 7.52473C110.389 7.7118 110.575 7.88573 110.788 8.04545C111.001 8.20516 111.22 8.35284 111.445 8.4874L112.471 9.11422C112.887 9.35927 113.275 9.63494 113.635 9.94343C113.995 10.2519 114.298 10.5921 114.543 10.9663C114.789 11.3404 114.949 11.7495 115.022 12.1926C115.096 12.6356 115.052 13.1148 114.891 13.6289C114.674 14.3246 114.304 14.8804 113.783 15.2972C113.262 15.7139 112.62 15.9645 111.857 16.0509C111.093 16.1362 110.237 16.0301 109.285 15.7325C108.36 15.4426 107.604 15.0488 107.016 14.5511C106.426 14.0523 106.028 13.4692 105.819 12.8008C105.61 12.1324 105.614 11.3995 105.83 10.6009L107.947 11.2638C107.848 11.6872 107.868 12.0711 108.006 12.4157C108.144 12.7603 108.372 13.0568 108.692 13.3051C109.011 13.5534 109.394 13.7481 109.843 13.8882C110.311 14.0348 110.743 14.0927 111.141 14.0621C111.539 14.0315 111.879 13.921 112.159 13.7306C112.439 13.5403 112.634 13.2756 112.745 12.9364C112.838 12.6258 112.827 12.3413 112.713 12.0832C112.598 11.825 112.404 11.5767 112.128 11.3393C111.852 11.1019 111.519 10.8634 111.127 10.6217L109.884 9.85044C108.985 9.29254 108.332 8.66899 107.926 7.97981C107.52 7.29063 107.45 6.5205 107.716 5.66942C107.935 4.9693 108.318 4.41686 108.863 4.00991C109.407 3.60297 110.055 3.35683 110.803 3.27041C111.551 3.18399 112.341 3.27041 113.173 3.53186C114.015 3.7955 114.709 4.17291 115.253 4.66409C115.798 5.15526 116.171 5.71536 116.372 6.34547C116.574 6.97558 116.576 7.62647 116.378 8.29924L114.307 7.65163L114.31 7.65382Z" fill="#FBF9F1"/>
<path d="M124.749 10.4029L125.741 8.7937L134.193 14.0041L133.201 15.6133L129.927 13.595L124.387 22.5795L122.483 21.4057L128.023 12.4212L124.749 10.4029Z" fill="#FBF9F1"/>
<path d="M146.995 25.6753L148.548 27.3086L142.658 32.9128C142.012 33.5276 141.299 33.9159 140.52 34.0778C139.741 34.2408 138.954 34.1774 138.156 33.8897C137.36 33.602 136.612 33.0911 135.915 32.3571C135.213 31.6209 134.74 30.8474 134.491 30.0368C134.244 29.2273 134.221 28.4375 134.424 27.6696C134.626 26.9005 135.05 26.2092 135.696 25.5955L141.587 19.9912L143.14 21.6245L137.386 27.0985C137.011 27.4562 136.755 27.8566 136.619 28.3019C136.483 28.7471 136.477 29.1989 136.598 29.6594C136.72 30.12 136.978 30.5565 137.372 30.97C137.766 31.3835 138.19 31.6635 138.644 31.8101C139.099 31.9556 139.551 31.972 140 31.8571C140.45 31.7423 140.864 31.506 141.239 31.1483L146.993 25.6742L146.995 25.6753Z" fill="#FBF9F1"/>
<path d="M143.492 41.5233L154.324 35.3972L155.435 37.3597L146.248 42.5559L148.945 47.3266L147.3 48.2564L143.492 41.5233Z" fill="#FBF9F1"/>
<path d="M0.311523 177.78C0.311523 176.342 1.18449 175.162 2.82649 175.213C7.4976 175.367 5.80418 184.454 15.4035 184.454C19.5615 184.454 22.4364 181.989 22.4364 178.294C22.4364 166.487 1.08166 175.162 1.08166 159.762C1.08166 154.013 5.8556 149.496 14.326 149.496C22.7963 149.496 28.1347 154.218 28.0833 158.12C28.0833 159.712 27.2103 160.738 25.4141 160.738C20.5887 160.738 22.7963 151.96 14.1717 151.96C9.65484 151.96 7.34445 154.784 7.34445 158.069C7.34445 169.157 28.6992 161.457 28.6992 176.6C28.6992 183.12 22.385 186.918 15.1475 186.918C5.03514 186.918 0.311523 181.426 0.311523 177.781V177.78Z" fill="#FBF9F1"/>
<path d="M33.7308 175.726V166.846C33.7308 164.741 31.7803 164.434 31.7803 163.406V163.252C31.7803 162.79 32.1402 162.431 32.7046 162.328L38.0945 161.455C39.172 161.301 39.8393 161.455 39.8393 162.225L39.7365 176.291C39.7365 181.681 41.5327 184.453 44.8703 184.453C47.9509 184.453 50.363 181.732 50.363 177.523V166.845C50.363 164.74 48.3611 164.432 48.3611 163.405V163.251C48.3611 162.789 48.6685 162.429 49.234 162.327L54.7267 161.454C55.8042 161.299 56.3698 161.454 56.3698 162.224V181.577C56.3698 185.478 58.9876 183.733 58.9876 185.426C58.9876 186.453 57.653 186.709 55.138 186.709C52.4174 186.709 50.9286 185.785 50.98 182.91C49.5425 185.477 46.9247 186.914 43.2797 186.914C37.7871 186.914 33.7319 183.218 33.7319 175.723L33.7308 175.726Z" fill="#FBF9F1"/>
<path d="M81.6757 185.634V185.48C81.6757 184.3 83.5748 184.145 83.5748 182.143V156.528C81.7785 154.526 81.5214 150.675 77.2606 150.625C74.0783 150.573 71.2548 153.961 71.2548 159.095V161.764H77.9793C78.4923 161.764 78.8522 162.175 78.8522 162.637V163.459C78.8522 163.921 78.4923 164.28 77.9793 164.28H71.2548V182.093C71.2548 184.146 73.7184 184.352 73.7184 185.481V185.687C73.7184 186.097 73.3596 186.405 72.8454 186.405H64.3237C63.7592 186.405 63.3993 186.097 63.3993 185.687V185.481C63.3993 184.352 65.4012 184.146 65.4012 182.093V164.28H61.4488C60.9357 164.28 60.5244 163.921 60.5244 163.459V162.637C60.5244 162.176 60.9346 161.764 61.4488 161.764H65.4012V159.66C65.4012 152.627 70.8424 148.674 78.1838 148.674C80.4942 148.674 82.4447 149.136 84.0364 149.803L87.886 147.956C89.0149 147.34 89.7336 148.007 89.7336 148.777V182.144C89.7336 184.146 91.8384 184.301 91.8384 185.481V185.635C91.8384 186.097 91.3767 186.405 90.7094 186.405H82.7532C82.0859 186.405 81.6757 186.097 81.6757 185.635V185.634Z" fill="#FBF9F1"/>
<path d="M95.0225 173.879C95.0225 166.538 100.515 161.25 107.291 161.25C114.067 161.25 116.89 165.203 116.89 168.796C116.89 170.747 115.863 171.825 114.272 172.39L101.85 176.958C103.133 180.449 105.751 182.605 109.396 182.605C112.629 182.605 114.94 180.91 115.967 178.857C116.531 178.138 117.712 178.344 117.61 179.37C117.148 182.399 113.709 186.916 107.189 186.916C100.311 186.916 95.0235 181.834 95.0235 173.878L95.0225 173.879ZM101.285 174.854L109.807 171.158C110.731 170.748 111.142 170.029 111.142 169.002C111.142 166.897 109.243 163.201 106.265 163.201C103.031 163.201 100.978 166.64 100.978 171.568C100.978 172.749 101.081 173.827 101.286 174.853L101.285 174.854Z" fill="#FBF9F1"/>
<path d="M123.205 178.601V164.279H120.278C119.765 164.279 119.405 163.919 119.405 163.406V162.688C119.405 162.123 119.714 161.763 120.278 161.763H121.87C124.539 161.763 126.131 159.761 126.541 156.784C126.644 156.065 127.054 155.655 127.568 155.655H128.338C129.006 155.655 129.314 156.065 129.314 156.784L129.366 161.763H135.834C136.347 161.763 136.758 162.174 136.758 162.688V163.406C136.758 163.919 136.348 164.279 135.834 164.279H129.366V178.653C129.366 181.116 130.597 182.452 132.292 182.452C134.448 182.452 135.628 181.272 135.937 179.783C136.398 178.961 137.631 179.115 137.631 180.04C137.631 183.479 135.014 186.918 130.393 186.918C126.08 186.918 123.206 184.146 123.206 178.602L123.205 178.601Z" fill="#FBF9F1"/>
<path d="M141.069 175.726V166.846C141.069 164.741 139.118 164.434 139.118 163.406V163.252C139.118 162.79 139.478 162.431 140.043 162.328L145.432 161.455C146.51 161.301 147.177 161.455 147.177 162.225L147.074 176.291C147.074 181.681 148.871 184.453 152.208 184.453C155.289 184.453 157.701 181.732 157.701 177.523V166.845C157.701 164.74 155.699 164.432 155.699 163.405V163.251C155.699 162.789 156.006 162.429 156.572 162.327L162.065 161.454C163.142 161.299 163.708 161.454 163.708 162.224V181.577C163.708 185.478 166.325 183.733 166.325 185.426C166.325 186.453 164.991 186.709 162.476 186.709C159.755 186.709 158.266 185.785 158.318 182.91C156.88 185.477 154.263 186.914 150.618 186.914C145.125 186.914 141.07 183.218 141.07 175.723L141.069 175.726Z" fill="#FBF9F1"/>
<path d="M169.147 185.634V185.48C169.147 184.299 171.047 184.145 171.047 182.143V155.09C171.047 152.934 169.147 152.524 169.147 151.599V151.445C169.147 150.984 169.507 150.778 170.02 150.521L175.206 147.954C176.386 147.39 177.053 148.006 177.053 148.776V182.143C177.053 184.145 179.158 184.299 179.158 185.48V185.634C179.158 186.096 178.696 186.404 178.029 186.404H170.226C169.559 186.404 169.149 186.096 169.149 185.634H169.147Z" fill="#FBF9F1"/>
<path d="M2.05664 242.723V242.569C2.05664 241.44 4.00713 241.183 4.00713 239.181V211.255C4.00713 209.202 2.05664 208.996 2.05664 207.867V207.713C2.05664 207.251 2.46687 206.994 3.08385 206.994H25.5172C26.4416 206.994 26.8004 207.456 26.9547 208.329L28.1864 213.873C28.3407 214.643 27.9294 215.053 27.3135 215.053H27.1078C25.0545 215.053 23.5656 209.612 20.5879 209.612H12.0148C10.9875 209.612 10.2699 210.125 10.2699 211.511V225.063H18.329C20.2795 225.063 20.7936 221.675 21.974 221.675H22.3339C22.7955 221.675 23.104 222.035 23.104 222.651V229.94C23.104 230.504 22.7955 230.916 22.3339 230.916H21.974C20.7936 230.916 20.2795 227.682 18.329 227.682H10.2699V239.18C10.2699 241.182 12.3747 241.439 12.3747 242.568V242.722C12.3747 243.184 11.913 243.441 11.2457 243.441H3.18668C2.51938 243.441 2.05773 243.184 2.05773 242.722L2.05664 242.723Z" fill="#FBF9F1"/>
<path d="M45.0246 240.67C43.8442 242.569 41.5338 243.955 37.8888 243.955C32.2933 243.955 28.2895 241.234 28.2895 236.203C28.2381 231.172 32.4476 228.503 37.6318 228.503C40.1467 228.503 42.2 229.171 43.5861 230.248L43.4832 229.221C42.9188 223.267 41.687 220.186 38.0934 220.186C33.3195 220.186 34.3456 226.397 31.1119 226.397C29.5716 226.397 28.5969 225.473 28.5969 224.036C28.5969 220.802 32.6007 218.286 38.0934 218.286C44.5618 218.286 48.7199 222.341 49.4386 228.963L50.4658 238.819C50.8257 242.156 53.2893 241.129 53.2893 242.464C53.2893 243.44 51.3388 243.747 49.1312 243.747C46.5134 243.747 45.2302 243.183 45.0246 240.667V240.67ZM39.5833 242.005C42.4582 242.005 44.3573 239.591 44.203 236.819L44.0488 235.228C43.8431 232.301 41.8926 230.454 39.172 230.454C36.4514 230.454 34.3467 232.404 34.3467 235.485C34.3467 238.976 36.4 242.005 39.5822 242.005H39.5833Z" fill="#FBF9F1"/>
<path d="M89.5812 242.775V242.569C89.5812 241.44 91.4802 241.183 91.3774 239.181L90.8644 229.479C90.5559 223.114 88.6568 220.753 85.4231 220.753C82.5997 220.753 80.4435 223.319 80.2893 226.81C80.4435 227.58 80.4949 228.402 80.4949 229.274V239.181C80.4949 241.183 82.2912 241.44 82.2912 242.569V242.775C82.2912 243.237 81.8809 243.494 81.2136 243.494H73.7705C73.1032 243.494 72.6415 243.237 72.6415 242.775V242.569C72.6415 241.44 74.4378 241.183 74.4378 239.181V228.915C74.4378 223.679 72.1274 220.753 69.048 220.753C65.9685 220.753 63.8124 223.422 63.6581 226.861L63.7095 239.181C63.7095 241.183 65.7629 241.44 65.7629 242.569V242.775C65.7629 243.237 65.3526 243.494 64.6853 243.494H56.7291C56.0618 243.494 55.6002 243.237 55.6002 242.775V242.569C55.6002 241.44 57.6535 241.183 57.6535 239.181V225.424C57.6535 223.268 55.3945 223.114 55.3945 221.985V221.83C55.3945 221.42 55.7544 221.163 56.3189 220.906L61.5556 218.494C62.6331 217.929 63.1987 218.545 63.1987 219.418V222.447C64.6875 219.932 67.3567 218.289 70.539 218.289C74.2354 218.289 77.4691 220.086 79.2139 223.372C80.5485 220.138 83.629 218.289 87.2215 218.289C92.1497 218.289 96.2564 221.216 96.8208 229.635L97.4367 239.131C97.5396 241.184 99.2844 241.441 99.2844 242.57V242.776C99.2844 243.238 98.8228 243.495 98.2069 243.495H90.6609C89.9936 243.495 89.5834 243.238 89.5834 242.776L89.5812 242.775Z" fill="#FBF9F1"/>
<path d="M102.414 242.672V242.466C102.414 241.338 104.313 241.132 104.313 239.13V225.68C104.313 223.575 102.414 223.062 102.414 222.138V221.984C102.414 221.573 102.773 221.368 103.338 221.059L108.472 218.493C109.653 217.928 110.32 218.544 110.32 219.366V239.129C110.32 241.131 112.425 241.336 112.425 242.465V242.671C112.425 243.133 111.963 243.441 111.296 243.441H103.493C102.825 243.441 102.415 243.133 102.415 242.671L102.414 242.672ZM107.291 206.841C109.806 206.841 111.449 208.484 111.449 210.691C111.449 212.897 109.806 214.54 107.291 214.54C104.776 214.54 103.03 212.949 103.03 210.691C103.03 208.433 104.724 206.841 107.291 206.841Z" fill="#FBF9F1"/>
<path d="M115.607 242.672V242.518C115.607 241.337 117.507 241.183 117.507 239.181V212.128C117.507 209.972 115.607 209.562 115.607 208.637V208.483C115.607 208.022 115.967 207.816 116.48 207.559L121.666 204.992C122.846 204.428 123.513 205.044 123.513 205.814V239.181C123.513 241.183 125.618 241.337 125.618 242.518V242.672C125.618 243.134 125.156 243.442 124.489 243.442H116.686C116.019 243.442 115.609 243.134 115.609 242.672H115.607Z" fill="#FBF9F1"/>
<path d="M129.262 242.672V242.466C129.262 241.338 131.161 241.132 131.161 239.13V225.68C131.161 223.575 129.262 223.062 129.262 222.138V221.984C129.262 221.573 129.621 221.368 130.186 221.059L135.32 218.493C136.5 217.928 137.168 218.544 137.168 219.366V239.129C137.168 241.131 139.272 241.336 139.272 242.465V242.671C139.272 243.133 138.811 243.441 138.143 243.441H130.34C129.673 243.441 129.263 243.133 129.263 242.671L129.262 242.672ZM134.138 206.841C136.653 206.841 138.297 208.484 138.297 210.691C138.297 212.897 136.653 214.54 134.138 214.54C131.624 214.54 129.878 212.949 129.878 210.691C129.878 208.433 131.572 206.841 134.138 206.841Z" fill="#FBF9F1"/>
<path d="M142.403 230.917C142.403 223.576 147.896 218.288 154.672 218.288C161.448 218.288 164.271 222.24 164.271 225.834C164.271 227.785 163.244 228.863 161.653 229.428L149.231 233.996C150.514 237.487 153.132 239.643 156.777 239.643C160.01 239.643 162.321 237.948 163.348 235.895C163.912 235.176 165.093 235.382 164.991 236.408C164.529 239.437 161.09 243.954 154.57 243.954C147.691 243.954 142.404 238.872 142.404 230.915L142.403 230.917ZM148.666 231.892L157.188 228.196C158.112 227.786 158.522 227.067 158.522 226.04C158.522 223.935 156.623 220.239 153.646 220.239C150.412 220.239 148.359 223.678 148.359 228.606C148.359 229.786 148.462 230.865 148.667 231.891L148.666 231.892Z" fill="#FBF9F1"/>
<path d="M168.326 242.672V242.466C168.326 241.338 170.225 241.132 170.225 239.13V225.68C170.225 223.575 168.326 223.062 168.326 222.138V221.984C168.326 221.573 168.685 221.368 169.251 221.059L174.384 218.493C175.565 217.928 176.232 218.544 176.232 219.366V239.129C176.232 241.131 178.337 241.336 178.337 242.465V242.671C178.337 243.133 177.875 243.441 177.208 243.441H169.405C168.737 243.441 168.327 243.133 168.327 242.671L168.326 242.672ZM173.203 206.841C175.718 206.841 177.361 208.484 177.361 210.691C177.361 212.897 175.718 214.54 173.203 214.54C170.688 214.54 168.942 212.949 168.942 210.691C168.942 208.433 170.637 206.841 173.203 206.841Z" fill="#FBF9F1"/>
<path d="M2.32531 274.586C2.32531 271.246 4.87637 269.156 7.86501 269.134C10.3275 269.112 12.2834 270.563 12.2834 272.035C12.2834 272.542 11.976 273.004 11.1621 272.982C9.58031 272.893 9.64485 269.969 7.44713 269.969C5.90905 269.969 4.91904 271.464 4.91904 273.355C4.91904 276.366 6.48009 278.301 8.83205 278.301C10.2607 278.301 11.184 277.444 11.6675 276.499C11.8874 276.168 12.4366 276.235 12.3709 276.697C12.1511 278.411 10.6775 280.126 7.97441 280.126C4.78667 280.126 2.32422 277.664 2.32422 274.586H2.32531Z" fill="#FBF9F1"/>
<path d="M14.2635 275.334V271.531C14.2635 270.631 13.4277 270.499 13.4277 270.058V269.992C13.4277 269.794 13.582 269.641 13.8226 269.596L16.1309 269.222C16.5925 269.156 16.878 269.222 16.878 269.552L16.8343 275.576C16.8343 277.883 17.6044 279.071 19.0331 279.071C20.3524 279.071 21.385 277.906 21.385 276.103V271.53C21.385 270.63 20.5274 270.497 20.5274 270.057V269.991C20.5274 269.793 20.6598 269.64 20.9015 269.595L23.2535 269.221C23.7151 269.155 23.9569 269.221 23.9569 269.551V277.839C23.9569 279.509 25.0782 278.762 25.0782 279.487C25.0782 279.927 24.5071 280.038 23.4296 280.038C22.2646 280.038 21.6268 279.642 21.6487 278.411C21.0328 279.51 19.9115 280.126 18.3515 280.126C15.9996 280.126 14.2635 278.543 14.2635 275.334Z" fill="#FBF9F1"/>
<path d="M29.6973 279.599V279.533C29.6973 279.05 30.4444 279.027 30.8186 278.083L35.435 266.234C35.7216 265.509 34.7108 265.091 34.7108 264.673V264.608C34.7108 264.432 34.8421 264.3 35.0849 264.3H36.821C37.415 264.3 37.7661 264.542 38.0079 265.136L43.5257 278.084C43.9206 279.007 44.647 279.051 44.647 279.534V279.6C44.647 279.797 44.4709 279.907 44.1854 279.907H40.2724C39.9857 279.907 39.8107 279.797 39.8107 279.6V279.534C39.8107 279.051 40.9539 278.94 40.6235 278.084L39.7659 275.907H33.1279L32.314 278.084C31.9847 278.94 33.1279 279.051 33.1279 279.534V279.6C33.1279 279.797 32.9517 279.907 32.6443 279.907H30.1611C29.8745 279.907 29.6995 279.797 29.6995 279.6L29.6973 279.599ZM39.3031 274.719L36.3583 267.201L33.5665 274.719H39.3031Z" fill="#FBF9F1"/>
<path d="M44.8652 274.608C44.8652 271.377 47.1516 269.134 50.0308 269.134C51.2177 269.134 52.2066 269.574 52.91 270.256V266.123C52.91 265.156 51.8992 265.134 51.8992 264.649V264.605C51.8992 264.407 52.0535 264.254 52.2942 264.166L54.6253 263.418C55.1526 263.243 55.3944 263.375 55.3944 263.813V278.081C55.3944 278.937 56.2302 279.069 56.2302 279.531V279.597C56.2302 279.794 56.0978 279.904 55.856 279.904H53.5697C53.3061 279.904 53.1518 279.728 53.1299 279.486L53.0643 278.717C52.3401 279.64 51.1969 280.125 49.987 280.125C47.3047 280.125 44.8652 278.036 44.8652 274.607V274.608ZM50.58 279.292C51.6575 279.292 52.91 278.368 52.91 276.455V272.938C52.91 271.531 51.6575 269.97 50.1183 269.97C48.4916 269.97 47.4141 271.377 47.3703 273.707C47.3047 276.697 48.5792 279.247 50.58 279.292Z" fill="#FBF9F1"/>
<path d="M57.749 279.576V279.487C57.749 279.004 58.5618 278.916 58.5618 278.059V272.299C58.5618 271.398 57.749 271.178 57.749 270.782V270.716C57.749 270.54 57.9033 270.453 58.1439 270.321L60.3428 269.222C60.8481 268.98 61.1337 269.244 61.1337 269.596V278.06C61.1337 278.917 62.0351 279.005 62.0351 279.488V279.577C62.0351 279.775 61.8371 279.907 61.5516 279.907H58.2107C57.9241 279.907 57.749 279.775 57.749 279.577V279.576ZM59.8363 264.232C60.9127 264.232 61.6172 264.936 61.6172 265.88C61.6172 266.824 60.9138 267.53 59.8363 267.53C58.7587 267.53 58.0116 266.848 58.0116 265.88C58.0116 264.912 58.7379 264.232 59.8363 264.232Z" fill="#FBF9F1"/>
<path d="M68.0811 277.575C68.0811 276.894 68.5427 276.564 69.1805 276.564C70.829 276.564 70.1037 279.356 72.6756 279.356C73.8406 279.356 74.6983 278.785 74.6983 277.663C74.6983 274.695 68.302 276.652 68.302 272.255C68.302 270.475 70.083 269.134 72.611 269.134C75.359 269.134 77.0076 270.475 77.0076 271.75C77.0076 272.3 76.5678 272.695 75.9957 272.695C74.4576 272.695 75.0505 269.925 72.7423 269.925C71.6648 269.925 70.8958 270.672 70.8958 271.619C70.8958 274.607 77.292 272.695 77.292 277.048C77.292 278.763 75.5122 280.103 72.6756 280.103C69.839 280.103 68.0811 278.785 68.0811 277.575ZM72.785 280.961C73.6415 280.961 74.3679 281.642 74.3679 282.807C74.3679 284.258 73.5759 285.643 71.9722 286.699C71.621 286.897 71.1802 286.479 71.4887 286.171C72.2577 285.424 72.5443 284.984 72.6318 284.368C72.6756 284.17 72.6318 284.017 72.4338 284.017C71.7742 284.017 71.2688 283.423 71.2688 282.567C71.2688 281.643 71.8628 280.962 72.7861 280.962L72.785 280.961Z" fill="#FBF9F1"/>
<path d="M78.8545 279.576V279.487C78.8545 279.004 79.6673 278.916 79.6673 278.059V272.299C79.6673 271.398 78.8545 271.178 78.8545 270.782V270.716C78.8545 270.54 79.0087 270.453 79.2494 270.321L81.4482 269.222C81.9536 268.98 82.2402 269.244 82.2402 269.596V278.06C82.2402 278.917 83.1416 279.005 83.1416 279.488V279.577C83.1416 279.775 82.9436 279.907 82.6581 279.907H79.3172C79.0317 279.907 78.8556 279.775 78.8556 279.577L78.8545 279.576ZM80.9428 264.232C82.0193 264.232 82.7227 264.936 82.7227 265.88C82.7227 266.824 82.0193 267.53 80.9428 267.53C79.8664 267.53 79.1181 266.848 79.1181 265.88C79.1181 264.912 79.8434 264.232 80.9428 264.232Z" fill="#FBF9F1"/>
<path d="M89.626 279.599V279.533C89.626 279.05 90.4617 278.961 90.4617 278.06V266.146C90.4617 265.244 89.626 265.134 89.626 264.672V264.606C89.626 264.408 89.801 264.299 90.0657 264.299H99.6278C100.024 264.299 100.178 264.475 100.244 264.849L100.771 267.223C100.837 267.552 100.683 267.729 100.42 267.729H100.309C99.4298 267.729 98.815 265.398 97.5406 265.398H93.8464C93.4066 265.398 93.0992 265.64 93.0992 266.255V271.377H96.485C97.4301 271.377 97.5176 269.926 98.023 269.926H98.1554C98.3534 269.926 98.4847 270.081 98.4847 270.344V273.465C98.4847 273.707 98.3534 273.883 98.1554 273.883H98.023C97.5176 273.883 97.4301 272.498 96.485 272.498H93.0992L93.0773 277.643C93.0773 278.214 93.364 278.808 94.0663 278.808H98.221C99.5185 278.808 99.9571 276.39 100.902 276.39H101.057C101.298 276.39 101.431 276.632 101.387 276.896L100.882 279.335C100.793 279.709 100.64 279.907 100.244 279.907H90.1095C89.8229 279.907 89.626 279.797 89.626 279.6V279.599Z" fill="#FBF9F1"/>
<path d="M117.369 279.62V279.532C117.369 279.049 118.183 278.938 118.139 278.082L117.919 273.927C117.788 271.201 116.974 270.19 115.589 270.19C114.38 270.19 113.457 271.289 113.39 272.784C113.456 273.114 113.478 273.465 113.478 273.839V278.083C113.478 278.939 114.247 279.05 114.247 279.533V279.621C114.247 279.819 114.072 279.928 113.785 279.928H110.597C110.312 279.928 110.114 279.818 110.114 279.621V279.533C110.114 279.05 110.883 278.939 110.883 278.083V273.686C110.883 271.444 109.894 270.191 108.575 270.191C107.255 270.191 106.332 271.334 106.266 272.807L106.288 278.083C106.288 278.939 107.168 279.05 107.168 279.533V279.621C107.168 279.819 106.993 279.928 106.706 279.928H103.299C103.013 279.928 102.815 279.818 102.815 279.621V279.533C102.815 279.05 103.695 278.939 103.695 278.083V272.191C103.695 271.267 102.728 271.202 102.728 270.718V270.653C102.728 270.478 102.882 270.366 103.122 270.258L105.365 269.224C105.827 268.982 106.068 269.246 106.068 269.62V270.917C106.705 269.84 107.848 269.136 109.211 269.136C110.794 269.136 112.179 269.905 112.926 271.313C113.497 269.928 114.817 269.136 116.356 269.136C118.466 269.136 120.225 270.389 120.467 273.995L120.73 278.062C120.774 278.941 121.522 279.051 121.522 279.535V279.623C121.522 279.821 121.324 279.93 121.061 279.93H117.829C117.543 279.93 117.367 279.82 117.367 279.623L117.369 279.62Z" fill="#FBF9F1"/>
<path d="M129.922 278.718C129.417 279.532 128.428 280.126 126.867 280.126C124.471 280.126 122.756 278.96 122.756 276.806C122.734 274.652 124.537 273.509 126.757 273.509C127.833 273.509 128.714 273.795 129.307 274.256L129.263 273.816C129.021 271.265 128.494 269.947 126.955 269.947C124.911 269.947 125.35 272.608 123.965 272.608C123.305 272.608 122.888 272.212 122.888 271.596C122.888 270.211 124.603 269.133 126.956 269.133C129.726 269.133 131.506 270.87 131.814 273.706L132.254 277.927C132.408 279.356 133.462 278.916 133.462 279.487C133.462 279.905 132.627 280.038 131.683 280.038C130.561 280.038 130.012 279.796 129.924 278.718H129.922ZM127.592 279.291C128.823 279.291 129.637 278.257 129.571 277.07L129.506 276.388C129.418 275.136 128.582 274.344 127.417 274.344C126.252 274.344 125.351 275.18 125.351 276.499C125.351 277.993 126.23 279.291 127.593 279.291H127.592Z" fill="#FBF9F1"/>
<path d="M139.354 279.599V279.51C139.354 279.049 140.167 278.939 140.167 278.082V266.123C140.167 265.265 139.354 265.156 139.354 264.672V264.606C139.354 264.408 139.53 264.299 139.816 264.299H145.158C148.851 264.299 150.896 265.97 150.896 268.212C150.896 269.883 149.796 271.113 148.06 271.509C150.829 271.883 152.391 273.423 152.391 275.532C152.391 278.192 149.84 279.906 146.037 279.906H139.817C139.531 279.906 139.356 279.796 139.356 279.599H139.354ZM143.795 271.091H145.774C147.444 271.091 148.522 270.058 148.522 268.629C148.522 266.606 147.181 265.419 145.07 265.419H143.62C143.18 265.419 142.828 265.639 142.828 266.299V270.145C142.828 270.716 143.223 271.09 143.796 271.09L143.795 271.091ZM144.014 278.785H145.816C148.432 278.785 149.663 277.796 149.663 275.95C149.663 274.103 148.036 272.19 144.959 272.19H142.827V277.467C142.827 278.236 143.31 278.785 144.014 278.785Z" fill="#FBF9F1"/>
<path d="M160.942 278.718C160.437 279.532 159.448 280.126 157.887 280.126C155.491 280.126 153.776 278.96 153.776 276.806C153.754 274.652 155.557 273.509 157.776 273.509C158.854 273.509 159.733 273.795 160.326 274.256L160.282 273.816C160.041 271.265 159.513 269.947 157.974 269.947C155.931 269.947 156.369 272.608 154.985 272.608C154.326 272.608 153.909 272.212 153.909 271.596C153.909 270.211 155.623 269.133 157.975 269.133C160.745 269.133 162.526 270.87 162.833 273.706L163.273 277.927C163.427 279.356 164.482 278.916 164.482 279.487C164.482 279.905 163.646 280.038 162.701 280.038C161.58 280.038 161.031 279.796 160.942 278.718ZM158.612 279.291C159.844 279.291 160.656 278.257 160.591 277.07L160.525 276.388C160.437 275.136 159.602 274.344 158.436 274.344C157.27 274.344 156.369 275.18 156.369 276.499C156.369 277.993 157.249 279.291 158.612 279.291Z" fill="#FBF9F1"/>
<path d="M172.968 279.599V279.51C172.968 279.027 173.804 278.939 173.76 278.06L173.54 273.818C173.43 271.311 172.573 270.19 171.232 270.19C169.891 270.19 168.925 271.333 168.925 272.916V278.082C168.925 278.938 169.825 279.027 169.825 279.51V279.599C169.825 279.796 169.65 279.928 169.342 279.928H165.935C165.65 279.928 165.474 279.796 165.474 279.599V279.51C165.474 279.027 166.353 278.939 166.353 278.082V272.19C166.353 271.223 165.364 271.201 165.364 270.717V270.652C165.364 270.477 165.519 270.365 165.759 270.257L167.891 269.223C168.353 268.981 168.573 269.245 168.573 269.619V271.048C169.189 269.862 170.397 269.135 171.914 269.135C173.98 269.135 175.87 270.455 176.09 273.906L176.354 278.061C176.398 278.94 177.146 279.028 177.146 279.511V279.6C177.146 279.797 176.948 279.929 176.662 279.929H173.453C173.144 279.929 172.969 279.797 172.969 279.6L172.968 279.599Z" fill="#FBF9F1"/>
</g>
<defs>
<clipPath id="clip0_4403_54">
<rect width="178.865" height="286.5" fill="white" transform="translate(0.302734 0.25)"/>
</clipPath>
</defs>
</svg>
