<svg width="491" height="304" viewBox="0 0 491 304" fill="none" xmlns="http://www.w3.org/2000/svg">
<path d="M1.64773 15.8936V4.25719H6.01136C6.9053 4.25719 7.6553 4.42386 8.26136 4.75719C8.87121 5.09052 9.33144 5.54886 9.64205 6.13219C9.95644 6.71174 10.1136 7.37083 10.1136 8.10946C10.1136 8.85568 9.95644 9.51855 9.64205 10.0981C9.32765 10.6776 8.86364 11.1341 8.25 11.4674C7.63636 11.797 6.88068 11.9617 5.98295 11.9617H3.09091V10.2288H5.69886C6.22159 10.2288 6.64962 10.1379 6.98295 9.95605C7.31629 9.77424 7.5625 9.52424 7.72159 9.20605C7.88447 8.88787 7.96591 8.52234 7.96591 8.10946C7.96591 7.69659 7.88447 7.33295 7.72159 7.01855C7.5625 6.70416 7.31439 6.45984 6.97727 6.2856C6.64394 6.10757 6.21402 6.01855 5.6875 6.01855H3.75568V15.8936H1.64773ZM27.1423 10.0754C27.1423 11.3292 26.9075 12.403 26.4378 13.297C25.9719 14.1871 25.3355 14.8689 24.5287 15.3424C23.7257 15.8159 22.8147 16.0526 21.7957 16.0526C20.7768 16.0526 19.8639 15.8159 19.0571 15.3424C18.2541 14.8651 17.6177 14.1814 17.148 13.2913C16.6821 12.3973 16.4491 11.3254 16.4491 10.0754C16.4491 8.82158 16.6821 7.74962 17.148 6.85946C17.6177 5.96552 18.2541 5.28181 19.0571 4.80833C19.8639 4.33484 20.7768 4.0981 21.7957 4.0981C22.8147 4.0981 23.7257 4.33484 24.5287 4.80833C25.3355 5.28181 25.9719 5.96552 26.4378 6.85946C26.9075 7.74962 27.1423 8.82158 27.1423 10.0754ZM25.023 10.0754C25.023 9.1928 24.8848 8.44848 24.6082 7.84242C24.3355 7.23257 23.9567 6.77234 23.4719 6.46174C22.987 6.14734 22.4283 5.99015 21.7957 5.99015C21.1632 5.99015 20.6045 6.14734 20.1196 6.46174C19.6348 6.77234 19.2541 7.23257 18.9776 7.84242C18.7048 8.44848 18.5685 9.1928 18.5685 10.0754C18.5685 10.9579 18.7048 11.7042 18.9776 12.314C19.2541 12.9201 19.6348 13.3803 20.1196 13.6947C20.6045 14.0053 21.1632 14.1606 21.7957 14.1606C22.4283 14.1606 22.987 14.0053 23.4719 13.6947C23.9567 13.3803 24.3355 12.9201 24.6082 12.314C24.8848 11.7042 25.023 10.9579 25.023 10.0754ZM37.8784 15.8936H33.9352V4.25719H37.958C39.1133 4.25719 40.1057 4.49015 40.9352 4.95605C41.7686 5.41818 42.4087 6.08295 42.8557 6.95037C43.3027 7.8178 43.5261 8.85568 43.5261 10.064C43.5261 11.2761 43.3008 12.3178 42.85 13.189C42.403 14.0602 41.7572 14.7288 40.9125 15.1947C40.0716 15.6606 39.0602 15.8936 37.8784 15.8936ZM36.0432 14.0697H37.7761C38.5867 14.0697 39.2629 13.922 39.8045 13.6265C40.3462 13.3273 40.7534 12.8822 41.0261 12.2913C41.2989 11.6966 41.4352 10.9542 41.4352 10.064C41.4352 9.17386 41.2989 8.43522 41.0261 7.8481C40.7534 7.25719 40.35 6.8159 39.8159 6.52424C39.2856 6.22878 38.6265 6.08105 37.8386 6.08105H36.0432V14.0697ZM60.2892 8.18333H58.1642C58.1036 7.83484 57.9919 7.52613 57.829 7.25719C57.6661 6.98446 57.4634 6.7534 57.221 6.56401C56.9786 6.37461 56.7021 6.23257 56.3915 6.13787C56.0847 6.03939 55.7532 5.99015 55.3972 5.99015C54.7646 5.99015 54.204 6.14924 53.7153 6.46742C53.2267 6.78181 52.8441 7.24393 52.5676 7.85378C52.2911 8.45984 52.1528 9.20037 52.1528 10.0754C52.1528 10.9655 52.2911 11.7155 52.5676 12.3254C52.8479 12.9314 53.2305 13.3898 53.7153 13.7004C54.204 14.0072 54.7627 14.1606 55.3915 14.1606C55.74 14.1606 56.0657 14.1151 56.3688 14.0242C56.6756 13.9295 56.9502 13.7913 57.1926 13.6095C57.4388 13.4276 57.6453 13.2042 57.8119 12.939C57.9824 12.6739 58.0998 12.3708 58.1642 12.0299L60.2892 12.0413C60.2097 12.5943 60.0373 13.1133 59.7722 13.5981C59.5108 14.0829 59.168 14.511 58.7438 14.8822C58.3195 15.2496 57.8233 15.5375 57.2551 15.7458C56.6869 15.9504 56.0563 16.0526 55.3631 16.0526C54.3403 16.0526 53.4275 15.8159 52.6244 15.3424C51.8214 14.8689 51.1888 14.1852 50.7267 13.2913C50.2646 12.3973 50.0335 11.3254 50.0335 10.0754C50.0335 8.82158 50.2665 7.74962 50.7324 6.85946C51.1983 5.96552 51.8328 5.28181 52.6358 4.80833C53.4388 4.33484 54.3479 4.0981 55.3631 4.0981C56.0108 4.0981 56.6131 4.18901 57.1699 4.37083C57.7267 4.55265 58.2229 4.81969 58.6585 5.17196C59.0941 5.52045 59.4521 5.94848 59.7324 6.45605C60.0165 6.95984 60.2021 7.5356 60.2892 8.18333ZM68.3733 15.8936H66.1233L70.2199 4.25719H72.8222L76.9244 15.8936H74.6744L71.5665 6.64355H71.4756L68.3733 15.8936ZM68.4472 11.3311H74.5835V13.0242H68.4472V11.3311ZM89.3935 7.45605C89.3404 6.95984 89.117 6.57348 88.723 6.29696C88.3329 6.02045 87.8253 5.88219 87.2003 5.88219C86.7609 5.88219 86.384 5.94848 86.0696 6.08105C85.7552 6.21363 85.5147 6.39355 85.348 6.62083C85.1813 6.8481 85.0961 7.10757 85.0923 7.39924C85.0923 7.64166 85.1473 7.85189 85.2571 8.02992C85.3707 8.20795 85.5241 8.35946 85.7173 8.48446C85.9105 8.60568 86.1245 8.70795 86.3594 8.79128C86.5942 8.87462 86.831 8.94469 87.0696 9.00151L88.1605 9.27424C88.5999 9.37651 89.0223 9.51477 89.4276 9.68901C89.8366 9.86325 90.2022 10.0829 90.5241 10.3481C90.8499 10.6133 91.1075 10.9333 91.2969 11.3083C91.4863 11.6833 91.581 12.1227 91.581 12.6265C91.581 13.3083 91.4067 13.9087 91.0582 14.4276C90.7098 14.9428 90.206 15.3462 89.5469 15.6379C88.8916 15.9258 88.098 16.0697 87.1662 16.0697C86.2609 16.0697 85.4749 15.9295 84.8082 15.6492C84.1454 15.3689 83.6264 14.9598 83.2514 14.422C82.8802 13.8841 82.6795 13.2288 82.6491 12.4561H84.723C84.7533 12.8614 84.8783 13.1985 85.098 13.4674C85.3177 13.7364 85.6037 13.9371 85.956 14.0697C86.312 14.2023 86.7098 14.2686 87.1491 14.2686C87.6075 14.2686 88.009 14.2004 88.3537 14.064C88.7022 13.9239 88.9749 13.7307 89.1719 13.4845C89.3688 13.2345 89.4692 12.9428 89.473 12.6095C89.4692 12.3064 89.3802 12.0564 89.206 11.8595C89.0317 11.6587 88.7874 11.492 88.473 11.3595C88.1624 11.2231 87.7988 11.1019 87.3821 10.9958L86.0582 10.6549C85.0999 10.4087 84.3423 10.0356 83.7855 9.5356C83.2325 9.03181 82.956 8.36325 82.956 7.52992C82.956 6.84431 83.1416 6.24393 83.5128 5.72878C83.8878 5.21363 84.3973 4.81401 85.0412 4.52992C85.6851 4.24204 86.4143 4.0981 87.2287 4.0981C88.0545 4.0981 88.7779 4.24204 89.3991 4.52992C90.0241 4.81401 90.5147 5.20984 90.8707 5.71742C91.2268 6.22121 91.4105 6.80075 91.4219 7.45605H89.3935ZM97.7489 6.02424V4.25719H107.033V6.02424H103.436V15.8936H101.345V6.02424H97.7489ZM120.958 4.25719H123.066V11.8595C123.066 12.6928 122.869 13.4258 122.475 14.0583C122.085 14.6909 121.536 15.1852 120.827 15.5413C120.119 15.8936 119.291 16.0697 118.344 16.0697C117.394 16.0697 116.564 15.8936 115.856 15.5413C115.147 15.1852 114.598 14.6909 114.208 14.0583C113.818 13.4258 113.623 12.6928 113.623 11.8595V4.25719H115.731V11.6833C115.731 12.1682 115.837 12.6 116.049 12.9788C116.265 13.3576 116.568 13.6549 116.958 13.8708C117.348 14.0829 117.81 14.189 118.344 14.189C118.878 14.189 119.341 14.0829 119.731 13.8708C120.125 13.6549 120.428 13.3576 120.64 12.9788C120.852 12.6 120.958 12.1682 120.958 11.6833V4.25719ZM130.157 15.8936V4.25719H132.265V14.1265H137.39V15.8936H130.157Z" fill="#FBF9F1"/>
<path d="M8.93561 294.954C4.67372 294.954 1.38177 291.662 1.38177 287.547C1.38177 283.08 4.79129 280.288 8.78865 280.258C12.0806 280.229 14.6965 282.169 14.6965 284.138C14.6965 284.814 14.285 285.431 13.1975 285.402C11.0813 285.284 11.1694 281.375 8.2302 281.375C6.17273 281.375 4.85007 283.374 4.85007 285.901C4.85007 289.928 6.93693 292.515 10.0819 292.515C11.9924 292.515 13.2269 291.368 13.8735 290.105C14.1675 289.664 14.9023 289.752 14.8141 290.369C14.5202 292.662 12.5509 294.954 8.93561 294.954ZM22.8012 294.954C19.6563 294.954 17.3343 292.838 17.3343 288.547V283.462C17.3343 282.257 16.2173 282.08 16.2173 281.493V281.404C16.2173 281.14 16.4231 280.934 16.7464 280.875L19.8326 280.376C20.4499 280.288 20.832 280.376 20.832 280.817L20.7732 288.87C20.7732 291.956 21.8019 293.543 23.7124 293.543C25.476 293.543 26.8574 291.986 26.8574 289.576V283.462C26.8574 282.257 25.7111 282.08 25.7111 281.493V281.404C25.7111 281.14 25.8874 280.934 26.2108 280.875L29.3557 280.376C29.973 280.288 30.2963 280.376 30.2963 280.817V291.898C30.2963 294.131 31.7953 293.132 31.7953 294.102C31.7953 294.69 31.0311 294.837 29.5909 294.837C28.0331 294.837 27.1807 294.308 27.2101 292.662C26.3871 294.131 24.8881 294.954 22.8012 294.954ZM38.5774 294.66C38.1953 294.66 37.9601 294.513 37.9601 294.249V294.161C37.9601 293.514 38.9595 293.485 39.4591 292.221L45.6315 276.378C46.0136 275.408 44.6616 274.85 44.6616 274.291V274.203C44.6616 273.968 44.8379 273.792 45.1613 273.792H47.4833C48.2769 273.792 48.7471 274.115 49.0705 274.909L56.4479 292.221C56.977 293.455 57.947 293.514 57.947 294.161V294.249C57.947 294.513 57.7118 294.66 57.3297 294.66H52.0979C51.7158 294.66 51.4806 294.513 51.4806 294.249V294.161C51.4806 293.514 53.009 293.367 52.5681 292.221L51.4218 289.311H42.5453L41.4578 292.221C41.0169 293.367 42.5453 293.514 42.5453 294.161V294.249C42.5453 294.513 42.3102 294.66 41.8987 294.66H38.5774ZM43.1332 287.724H50.8046L46.866 277.672L43.1332 287.724ZM65.0925 294.954C61.5067 294.954 58.2441 292.162 58.2441 287.577C58.2441 283.256 61.3009 280.258 65.1513 280.258C66.7385 280.258 68.0612 280.846 69.0017 281.757V276.231C69.0017 274.938 67.6497 274.909 67.6497 274.262V274.203C67.6497 273.939 67.8554 273.733 68.1787 273.615L71.2943 272.616C71.9997 272.381 72.3231 272.557 72.3231 273.145V292.221C72.3231 293.367 73.44 293.543 73.44 294.161V294.249C73.44 294.513 73.2636 294.66 72.9403 294.66H69.8835C69.5308 294.66 69.325 294.425 69.2956 294.102L69.2075 293.073C68.2375 294.308 66.7091 294.954 65.0925 294.954ZM61.5948 286.372C61.5067 290.369 63.2114 293.779 65.8861 293.837C67.3263 293.837 69.0017 292.603 69.0017 290.046V285.343C69.0017 283.462 67.3263 281.375 65.2689 281.375C63.0938 281.375 61.6536 283.256 61.5948 286.372ZM76.0897 294.66C75.7075 294.66 75.4724 294.484 75.4724 294.22V294.102C75.4724 293.455 76.5599 293.338 76.5599 292.191V284.491C76.5599 283.286 75.4724 282.992 75.4724 282.463V282.374C75.4724 282.139 75.6782 282.022 76.0015 281.845L78.9407 280.376C79.6167 280.052 79.9988 280.405 79.9988 280.875V292.191C79.9988 293.338 81.2039 293.455 81.2039 294.102V294.22C81.2039 294.484 80.9394 294.66 80.5573 294.66H76.0897ZM75.8251 275.908C75.8251 274.644 76.7951 273.704 78.2647 273.704C79.7049 273.704 80.6455 274.644 80.6455 275.908C80.6455 277.201 79.7049 278.112 78.2647 278.112C76.7951 278.112 75.8251 277.201 75.8251 275.908ZM95.4149 294.925C91.5645 294.925 89.2719 293.161 89.2719 291.545C89.2719 290.634 89.8891 290.193 90.7415 290.193C92.9459 290.193 91.976 293.926 95.4149 293.926C96.9727 293.926 98.119 293.161 98.119 291.662C98.119 287.694 89.5658 290.31 89.5658 284.432C89.5658 282.051 91.9466 280.258 95.3267 280.258C99.0008 280.258 101.205 282.051 101.205 283.756C101.205 284.491 100.617 285.02 99.8532 285.02C97.7957 285.02 98.5893 281.316 95.5031 281.316C94.0629 281.316 93.0341 282.316 93.0341 283.579C93.0341 287.577 101.587 285.02 101.587 290.839C101.587 293.132 99.2065 294.925 95.4149 294.925ZM93.5338 298.217C93.5338 296.982 94.3274 296.071 95.5619 296.071C96.7082 296.071 97.6781 296.982 97.6781 298.54C97.6781 300.48 96.62 302.332 94.4743 303.743C94.0041 304.007 93.4162 303.449 93.8277 303.037C94.8564 302.038 95.2385 301.45 95.3561 300.627C95.4149 300.363 95.3561 300.157 95.0916 300.157C94.2098 300.157 93.5338 299.363 93.5338 298.217ZM104.305 294.66C103.923 294.66 103.688 294.484 103.688 294.22V294.102C103.688 293.455 104.775 293.338 104.775 292.191V284.491C104.775 283.286 103.688 282.992 103.688 282.463V282.374C103.688 282.139 103.894 282.022 104.217 281.845L107.156 280.376C107.832 280.052 108.214 280.405 108.214 280.875V292.191C108.214 293.338 109.419 293.455 109.419 294.102V294.22C109.419 294.484 109.155 294.66 108.773 294.66H104.305ZM104.041 275.908C104.041 274.644 105.011 273.704 106.48 273.704C107.92 273.704 108.861 274.644 108.861 275.908C108.861 277.201 107.92 278.112 106.48 278.112C105.011 278.112 104.041 277.201 104.041 275.908ZM118.722 294.66C118.34 294.66 118.075 294.513 118.075 294.249V294.161C118.075 293.514 119.192 293.397 119.192 292.191V276.261C119.192 275.056 118.075 274.909 118.075 274.291V274.203C118.075 273.939 118.31 273.792 118.663 273.792H131.449C131.978 273.792 132.184 274.027 132.272 274.527L132.977 277.701C133.065 278.142 132.86 278.377 132.507 278.377H132.36C131.184 278.377 130.361 275.261 128.657 275.261H123.719C123.131 275.261 122.719 275.585 122.719 276.408V283.256H127.246C128.51 283.256 128.627 281.316 129.303 281.316H129.48C129.744 281.316 129.92 281.522 129.92 281.875V286.048C129.92 286.372 129.744 286.607 129.48 286.607H129.303C128.627 286.607 128.51 284.755 127.246 284.755H122.719L122.69 291.633C122.69 292.397 123.072 293.191 124.013 293.191H129.568C131.302 293.191 131.89 289.958 133.154 289.958H133.359C133.683 289.958 133.859 290.281 133.8 290.634L133.124 293.896C133.007 294.396 132.801 294.66 132.272 294.66H118.722ZM155.798 294.69C155.416 294.69 155.181 294.543 155.181 294.278V294.161C155.181 293.514 156.268 293.367 156.21 292.221L155.916 286.666C155.739 283.021 154.652 281.669 152.8 281.669C151.183 281.669 149.949 283.139 149.861 285.137C149.949 285.578 149.978 286.048 149.978 286.548V292.221C149.978 293.367 151.007 293.514 151.007 294.161V294.278C151.007 294.543 150.772 294.69 150.39 294.69H146.128C145.746 294.69 145.481 294.543 145.481 294.278V294.161C145.481 293.514 146.51 293.367 146.51 292.221V286.342C146.51 283.344 145.187 281.669 143.424 281.669C141.602 281.669 140.426 283.197 140.338 285.167L140.367 292.221C140.367 293.367 141.543 293.514 141.543 294.161V294.278C141.543 294.543 141.308 294.69 140.926 294.69H136.37C135.988 294.69 135.723 294.543 135.723 294.278V294.161C135.723 293.514 136.899 293.367 136.899 292.221V284.344C136.899 283.109 135.606 283.021 135.606 282.374V282.286C135.606 282.051 135.811 281.904 136.135 281.757L139.133 280.376C139.75 280.052 140.073 280.405 140.073 280.905V282.639C140.926 281.199 142.454 280.258 144.276 280.258C146.393 280.258 148.244 281.287 149.244 283.168C150.008 281.316 151.771 280.258 153.829 280.258C156.65 280.258 159.002 281.933 159.325 286.754L159.678 292.191C159.737 293.367 160.736 293.514 160.736 294.161V294.278C160.736 294.543 160.471 294.69 160.119 294.69H155.798ZM174.316 294.837C172.817 294.837 172.083 294.513 171.965 293.073C171.289 294.161 169.966 294.954 167.88 294.954C164.676 294.954 162.383 293.397 162.383 290.516C162.354 287.636 164.764 286.107 167.733 286.107C169.173 286.107 170.348 286.489 171.142 287.107L171.083 286.519C170.76 283.109 170.055 281.346 167.997 281.346C165.264 281.346 165.851 284.902 164 284.902C163.118 284.902 162.559 284.373 162.559 283.55C162.559 281.698 164.852 280.258 167.997 280.258C171.701 280.258 174.081 282.58 174.493 286.372L175.081 292.015C175.286 293.926 176.697 293.338 176.697 294.102C176.697 294.66 175.58 294.837 174.316 294.837ZM165.851 290.105C165.851 292.103 167.027 293.837 168.849 293.837C170.495 293.837 171.583 292.456 171.495 290.869L171.407 289.958C171.289 288.282 170.172 287.224 168.614 287.224C166.998 287.224 165.851 288.341 165.851 290.105ZM185.199 294.66C184.817 294.66 184.582 294.513 184.582 294.249V294.131C184.582 293.514 185.669 293.367 185.669 292.221V276.231C185.669 275.085 184.582 274.938 184.582 274.291V274.203C184.582 273.939 184.817 273.792 185.199 273.792H192.342C197.279 273.792 200.013 276.026 200.013 279.024C200.013 281.257 198.543 282.903 196.221 283.433C199.925 283.932 202.012 285.99 202.012 288.811C202.012 292.368 198.602 294.66 193.517 294.66H185.199ZM189.226 291.398C189.226 292.427 189.873 293.161 190.813 293.161H193.223C196.721 293.161 198.367 291.839 198.367 289.37C198.367 286.813 196.192 284.344 192.077 284.344H189.226V291.398ZM189.226 281.61C189.226 282.374 189.755 282.874 190.519 282.874H193.165C195.398 282.874 196.839 281.493 196.839 279.582C196.839 276.878 195.046 275.291 192.224 275.291H190.284C189.696 275.291 189.226 275.585 189.226 276.467V281.61ZM215.793 294.837C214.294 294.837 213.559 294.513 213.442 293.073C212.766 294.161 211.443 294.954 209.356 294.954C206.152 294.954 203.86 293.397 203.86 290.516C203.83 287.636 206.24 286.107 209.209 286.107C210.649 286.107 211.825 286.489 212.619 287.107L212.56 286.519C212.237 283.109 211.531 281.346 209.474 281.346C206.74 281.346 207.328 284.902 205.476 284.902C204.595 284.902 204.036 284.373 204.036 283.55C204.036 281.698 206.329 280.258 209.474 280.258C213.177 280.258 215.558 282.58 215.969 286.372L216.557 292.015C216.763 293.926 218.174 293.338 218.174 294.102C218.174 294.66 217.057 294.837 215.793 294.837ZM207.328 290.105C207.328 292.103 208.504 293.837 210.326 293.837C211.972 293.837 213.06 292.456 212.971 290.869L212.883 289.958C212.766 288.282 211.649 287.224 210.091 287.224C208.474 287.224 207.328 288.341 207.328 290.105ZM230.178 294.69C229.767 294.69 229.531 294.513 229.531 294.249V294.131C229.531 293.485 230.648 293.367 230.589 292.191L230.296 286.519C230.149 283.168 229.002 281.669 227.209 281.669C225.328 281.669 224.123 283.197 224.123 285.314V292.221C224.123 293.367 225.328 293.485 225.328 294.131V294.249C225.328 294.513 225.093 294.69 224.682 294.69H220.126C219.744 294.69 219.509 294.513 219.509 294.249V294.131C219.509 293.485 220.684 293.367 220.684 292.221V284.344C220.684 283.05 219.362 283.021 219.362 282.374V282.286C219.362 282.051 219.567 281.904 219.891 281.757L222.742 280.376C223.359 280.052 223.653 280.405 223.653 280.905V282.815C224.476 281.228 226.092 280.258 228.121 280.258C230.883 280.258 233.411 282.022 233.705 286.636L234.058 292.191C234.117 293.367 235.116 293.485 235.116 294.131V294.249C235.116 294.513 234.851 294.69 234.469 294.69H230.178Z" fill="#FBF9F1"/>
<path d="M29.48 135.745C11.75 135.745 3.47 126.115 3.47 119.725C3.47 117.205 5 115.135 7.88 115.225C16.07 115.495 13.1 131.425 29.93 131.425C37.22 131.425 42.26 127.105 42.26 120.625C42.26 99.9252 4.82 115.135 4.82 88.1352C4.82 78.0552 13.19 70.1352 28.04 70.1352C43.43 70.1352 52.25 78.4152 52.16 85.2552C52.16 88.0452 50.63 89.8452 47.48 89.8452C39.02 89.8452 42.89 74.4552 27.77 74.4552C19.85 74.4552 15.8 79.4052 15.8 85.1652C15.8 104.605 53.24 91.1052 53.24 117.655C53.24 129.085 42.17 135.745 29.48 135.745ZM78.9063 135.745C69.2763 135.745 62.1663 129.265 62.1663 116.125V100.555C62.1663 96.8652 58.7463 96.3252 58.7463 94.5252V94.2552C58.7463 93.4452 59.3763 92.8152 60.3663 92.6352L69.8163 91.1052C71.7063 90.8352 72.8763 91.1052 72.8763 92.4552L72.6963 117.115C72.6963 126.565 75.8463 131.425 81.6963 131.425C87.0963 131.425 91.3263 126.655 91.3263 119.275V100.555C91.3263 96.8652 87.8163 96.3252 87.8163 94.5252V94.2552C87.8163 93.4452 88.3563 92.8152 89.3463 92.6352L98.9763 91.1052C100.866 90.8352 101.856 91.1052 101.856 92.4552V126.385C101.856 133.225 106.446 130.165 106.446 133.135C106.446 134.935 104.106 135.385 99.6963 135.385C94.9263 135.385 92.3163 133.765 92.4063 128.725C89.8863 133.225 85.2963 135.745 78.9063 135.745ZM148.23 134.845C147.06 134.845 146.34 134.305 146.34 133.495V133.225C146.34 131.155 149.67 130.885 149.67 127.375V82.4652C146.52 78.9552 146.07 72.2052 138.6 72.1152C133.02 72.0252 128.07 77.9652 128.07 86.9652V91.6452H139.86C140.76 91.6452 141.39 92.3652 141.39 93.1752V94.6152C141.39 95.4252 140.76 96.0552 139.86 96.0552H128.07V127.285C128.07 130.885 132.39 131.245 132.39 133.225V133.585C132.39 134.305 131.76 134.845 130.86 134.845H115.92C114.93 134.845 114.3 134.305 114.3 133.585V133.225C114.3 131.245 117.81 130.885 117.81 127.285V96.0552H110.88C109.98 96.0552 109.26 95.4252 109.26 94.6152V93.1752C109.26 92.3652 109.98 91.6452 110.88 91.6452H117.81V87.9552C117.81 75.6252 127.35 68.6952 140.22 68.6952C144.27 68.6952 147.69 69.5052 150.48 70.6752L157.23 67.4352C159.21 66.3552 160.47 67.5252 160.47 68.8752V127.375C160.47 130.885 164.16 131.155 164.16 133.225V133.495C164.16 134.305 163.35 134.845 162.18 134.845H148.23ZM191.209 135.745C179.149 135.745 169.879 126.835 169.879 112.885C169.879 100.015 179.509 90.7452 191.389 90.7452C202.999 90.7452 208.219 97.6752 208.219 103.975C208.219 107.395 206.419 109.285 203.629 110.275L181.849 118.285C184.099 124.405 188.689 128.185 195.079 128.185C200.749 128.185 204.799 125.215 206.599 121.615C207.589 120.355 209.659 120.715 209.479 122.515C208.669 127.825 202.639 135.745 191.209 135.745ZM180.319 108.835C180.319 110.905 180.499 112.795 180.859 114.595L195.799 108.115C197.419 107.395 198.139 106.135 198.139 104.335C198.139 100.645 194.809 94.1652 189.589 94.1652C183.919 94.1652 180.319 100.195 180.319 108.835ZM231.997 135.745C224.437 135.745 219.397 130.885 219.397 121.165V96.0552H214.267C213.367 96.0552 212.737 95.4252 212.737 94.5252V93.2652C212.737 92.2752 213.277 91.6452 214.267 91.6452H217.057C221.737 91.6452 224.527 88.1352 225.247 82.9152C225.427 81.6552 226.147 80.9352 227.047 80.9352H228.397C229.567 80.9352 230.107 81.6552 230.107 82.9152L230.197 91.6452H241.537C242.437 91.6452 243.157 92.3652 243.157 93.2652V94.5252C243.157 95.4252 242.437 96.0552 241.537 96.0552H230.197V121.255C230.197 125.575 232.357 127.915 235.327 127.915C239.107 127.915 241.177 125.845 241.717 123.235C242.527 121.795 244.687 122.065 244.687 123.685C244.687 129.715 240.097 135.745 231.997 135.745ZM267.568 135.745C257.938 135.745 250.828 129.265 250.828 116.125V100.555C250.828 96.8652 247.408 96.3252 247.408 94.5252V94.2552C247.408 93.4452 248.038 92.8152 249.028 92.6352L258.478 91.1052C260.368 90.8352 261.538 91.1052 261.538 92.4552L261.358 117.115C261.358 126.565 264.508 131.425 270.358 131.425C275.758 131.425 279.988 126.655 279.988 119.275V100.555C279.988 96.8652 276.478 96.3252 276.478 94.5252V94.2552C276.478 93.4452 277.018 92.8152 278.008 92.6352L287.638 91.1052C289.528 90.8352 290.518 91.1052 290.518 92.4552V126.385C290.518 133.225 295.108 130.165 295.108 133.135C295.108 134.935 292.768 135.385 288.358 135.385C283.588 135.385 280.978 133.765 281.068 128.725C278.548 133.225 273.958 135.745 267.568 135.745ZM302.061 134.845C300.891 134.845 300.171 134.305 300.171 133.495V133.225C300.171 131.155 303.501 130.885 303.501 127.375V79.9452C303.501 76.1652 300.171 75.4452 300.171 73.8252V73.5552C300.171 72.7452 300.801 72.3852 301.701 71.9352L310.791 67.4352C312.861 66.4452 314.031 67.5252 314.031 68.8752V127.375C314.031 130.885 317.721 131.155 317.721 133.225V133.495C317.721 134.305 316.911 134.845 315.741 134.845H302.061ZM6.98 234.845C5.81 234.845 5 234.395 5 233.585V233.315C5 231.335 8.42 230.885 8.42 227.375V178.415C8.42 174.815 5 174.455 5 172.475V172.205C5 171.395 5.72 170.945 6.8 170.945H46.13C47.75 170.945 48.38 171.755 48.65 173.285L50.81 183.005C51.08 184.355 50.36 185.075 49.28 185.075H48.92C45.32 185.075 42.71 175.535 37.49 175.535H22.46C20.66 175.535 19.4 176.435 19.4 178.865V202.625H33.53C36.95 202.625 37.85 196.685 39.92 196.685H40.55C41.36 196.685 41.9 197.315 41.9 198.395V211.175C41.9 212.165 41.36 212.885 40.55 212.885H39.92C37.85 212.885 36.95 207.215 33.53 207.215H19.4V227.375C19.4 230.885 23.09 231.335 23.09 233.315V233.585C23.09 234.395 22.28 234.845 21.11 234.845H6.98ZM87.663 235.385C83.073 235.385 80.823 234.395 80.463 229.985C78.393 233.315 74.343 235.745 67.953 235.745C58.143 235.745 51.123 230.975 51.123 222.155C51.033 213.335 58.413 208.655 67.503 208.655C71.913 208.655 75.513 209.825 77.943 211.715L77.763 209.915C76.773 199.475 74.613 194.075 68.313 194.075C59.943 194.075 61.743 204.965 56.073 204.965C53.373 204.965 51.663 203.345 51.663 200.825C51.663 195.155 58.683 190.745 68.313 190.745C79.653 190.745 86.943 197.855 88.203 209.465L90.003 226.745C90.633 232.595 94.953 230.795 94.953 233.135C94.953 234.845 91.533 235.385 87.663 235.385ZM61.743 220.895C61.743 227.015 65.343 232.325 70.923 232.325C75.963 232.325 79.293 228.095 79.023 223.235L78.753 220.445C78.393 215.315 74.973 212.075 70.203 212.075C65.253 212.075 61.743 215.495 61.743 220.895ZM160.61 234.935C159.44 234.935 158.72 234.485 158.72 233.675V233.315C158.72 231.335 162.05 230.885 161.87 227.375L160.97 210.365C160.43 199.205 157.1 195.065 151.43 195.065C146.48 195.065 142.7 199.565 142.43 205.685C142.7 207.035 142.79 208.475 142.79 210.005V227.375C142.79 230.885 145.94 231.335 145.94 233.315V233.675C145.94 234.485 145.22 234.935 144.05 234.935H131C129.83 234.935 129.02 234.485 129.02 233.675V233.315C129.02 231.335 132.17 230.885 132.17 227.375V209.375C132.17 200.195 128.12 195.065 122.72 195.065C117.14 195.065 113.54 199.745 113.27 205.775L113.36 227.375C113.36 230.885 116.96 231.335 116.96 233.315V233.675C116.96 234.485 116.24 234.935 115.07 234.935H101.12C99.9503 234.935 99.1403 234.485 99.1403 233.675V233.315C99.1403 231.335 102.74 230.885 102.74 227.375V203.255C102.74 199.475 98.7803 199.205 98.7803 197.225V196.955C98.7803 196.235 99.4103 195.785 100.4 195.335L109.58 191.105C111.47 190.115 112.46 191.195 112.46 192.725V198.035C115.07 193.625 119.75 190.745 125.33 190.745C131.81 190.745 137.48 193.895 140.54 199.655C142.88 193.985 148.28 190.745 154.58 190.745C163.22 190.745 170.42 195.875 171.41 210.635L172.49 227.285C172.67 230.885 175.73 231.335 175.73 233.315V233.675C175.73 234.485 174.92 234.935 173.84 234.935H160.61ZM183.214 234.845C182.044 234.845 181.324 234.305 181.324 233.495V233.135C181.324 231.155 184.654 230.795 184.654 227.285V203.705C184.654 200.015 181.324 199.115 181.324 197.495V197.225C181.324 196.505 181.954 196.145 182.944 195.605L191.944 191.105C194.014 190.115 195.184 191.195 195.184 192.635V227.285C195.184 230.795 198.874 231.155 198.874 233.135V233.495C198.874 234.305 198.064 234.845 196.894 234.845H183.214ZM182.404 177.425C182.404 173.555 185.374 170.675 189.874 170.675C194.284 170.675 197.164 173.555 197.164 177.425C197.164 181.385 194.284 184.175 189.874 184.175C185.374 184.175 182.404 181.385 182.404 177.425ZM206.412 234.845C205.242 234.845 204.522 234.305 204.522 233.495V233.225C204.522 231.155 207.852 230.885 207.852 227.375V179.945C207.852 176.165 204.522 175.445 204.522 173.825V173.555C204.522 172.745 205.152 172.385 206.052 171.935L215.142 167.435C217.212 166.445 218.382 167.525 218.382 168.875V227.375C218.382 230.885 222.072 231.155 222.072 233.225V233.495C222.072 234.305 221.262 234.845 220.092 234.845H206.412ZM230.435 234.845C229.265 234.845 228.545 234.305 228.545 233.495V233.135C228.545 231.155 231.875 230.795 231.875 227.285V203.705C231.875 200.015 228.545 199.115 228.545 197.495V197.225C228.545 196.505 229.175 196.145 230.165 195.605L239.165 191.105C241.235 190.115 242.405 191.195 242.405 192.635V227.285C242.405 230.795 246.095 231.155 246.095 233.135V233.495C246.095 234.305 245.285 234.845 244.115 234.845H230.435ZM229.625 177.425C229.625 173.555 232.595 170.675 237.095 170.675C241.505 170.675 244.385 173.555 244.385 177.425C244.385 181.385 241.505 184.175 237.095 184.175C232.595 184.175 229.625 181.385 229.625 177.425ZM272.984 235.745C260.924 235.745 251.654 226.835 251.654 212.885C251.654 200.015 261.284 190.745 273.164 190.745C284.774 190.745 289.994 197.675 289.994 203.975C289.994 207.395 288.194 209.285 285.404 210.275L263.624 218.285C265.874 224.405 270.464 228.185 276.854 228.185C282.524 228.185 286.574 225.215 288.374 221.615C289.364 220.355 291.434 220.715 291.254 222.515C290.444 227.825 284.414 235.745 272.984 235.745ZM262.094 208.835C262.094 210.905 262.274 212.795 262.634 214.595L277.574 208.115C279.194 207.395 279.914 206.135 279.914 204.335C279.914 200.645 276.584 194.165 271.364 194.165C265.694 194.165 262.094 200.195 262.094 208.835ZM299.102 234.845C297.932 234.845 297.212 234.305 297.212 233.495V233.135C297.212 231.155 300.542 230.795 300.542 227.285V203.705C300.542 200.015 297.212 199.115 297.212 197.495V197.225C297.212 196.505 297.842 196.145 298.832 195.605L307.832 191.105C309.902 190.115 311.072 191.195 311.072 192.635V227.285C311.072 230.795 314.762 231.155 314.762 233.135V233.495C314.762 234.305 313.952 234.845 312.782 234.845H299.102ZM298.292 177.425C298.292 173.555 301.262 170.675 305.762 170.675C310.172 170.675 313.052 173.555 313.052 177.425C313.052 181.385 310.172 184.175 305.762 184.175C301.262 184.175 298.292 181.385 298.292 177.425Z" fill="#FBF9F1"/>
</svg>
