<svg width="55" height="24" viewBox="0 0 55 24" fill="none" xmlns="http://www.w3.org/2000/svg">
<path d="M47.5117 23.9739H30.0267C29.6946 23.9338 29.3937 23.7774 29.1788 23.5448C28.9639 23.3082 28.8311 22.9953 28.8271 22.6424V22.6344V2.15201V2.14399C28.835 1.82314 28.8975 1.57047 29.0811 1.33384C29.2413 1.12528 29.4679 0.97288 29.804 0.840529C30.4604 0.579837 31.1598 0.371283 31.8865 0.234921C32.5898 0.0985589 33.3127 0.0263672 34.0394 0.0263672C37.0715 0.0263672 39.8339 1.21753 41.9087 3.1667C43.831 4.9715 45.1595 7.42601 45.5737 10.1934C45.7651 10.1372 45.9644 10.0851 46.1637 10.045C46.6091 9.95272 47.0623 9.90459 47.5156 9.90459C49.4106 9.90459 51.1259 10.6947 52.3684 11.9701C53.6109 13.2455 54.3806 15.0061 54.3806 16.9513C54.3806 18.8965 53.6148 20.6491 52.3723 21.9165C51.1298 23.1879 49.4106 23.9699 47.5156 23.9699L47.5117 23.9739Z" fill="#FBF9F1"/>
<path fill-rule="evenodd" clip-rule="evenodd" d="M27.5222 22.9072V22.8991C27.5222 23.3002 27.3386 23.621 27.1159 23.621C26.8932 23.621 26.7095 23.2962 26.7056 22.8991L26.6236 20.2321L26.5415 17.4928L26.7095 2.66541V2.58921C26.7095 2.36461 26.7681 2.16408 26.8619 2.02772C26.9322 1.92745 27.0221 1.86328 27.1198 1.86328C27.1979 1.86328 27.2683 1.89938 27.3269 1.96355C27.4441 2.09189 27.5261 2.3205 27.5261 2.5852L27.7059 17.4888L27.5222 22.8951V22.9072Z" fill="#FBF9F1"/>
<path fill-rule="evenodd" clip-rule="evenodd" d="M24.6267 22.4378L24.6111 22.9793C24.6111 23.1678 24.5642 23.3402 24.4978 23.4606C24.4274 23.5809 24.3337 23.6571 24.2321 23.6571C24.1149 23.6571 24.0094 23.5608 23.939 23.4084C23.8882 23.2961 23.8531 23.1557 23.8492 23.0033C23.8492 22.9953 23.8492 22.9873 23.8492 22.9793C23.8492 22.9793 23.7046 17.4967 23.7046 17.4887L23.8492 3.96079V3.83244C23.8492 3.59582 23.9234 3.38325 24.0289 3.26293C24.0875 3.19074 24.1578 3.15063 24.236 3.15063C24.3141 3.15063 24.3845 3.19475 24.447 3.26694C24.5486 3.38726 24.615 3.59582 24.6189 3.82843L24.7791 17.4927L24.6345 22.4338L24.6267 22.4378Z" fill="#FBF9F1"/>
<path fill-rule="evenodd" clip-rule="evenodd" d="M22.3762 23.0194C22.3762 23.3724 22.216 23.6491 22.0206 23.6491C21.8253 23.6491 21.669 23.3724 21.6651 23.0194L21.5049 17.4928L21.6651 6.0143C21.669 5.65735 21.8253 5.38062 22.0206 5.38062C22.216 5.38062 22.3723 5.66136 22.3762 6.0143L22.5559 17.4968L22.3762 23.0194Z" fill="#FBF9F1"/>
<path fill-rule="evenodd" clip-rule="evenodd" d="M20.1609 23.0554C20.157 23.3803 20.0124 23.641 19.8287 23.641C19.6451 23.641 19.5044 23.3803 19.5005 23.0554L19.3247 17.4967L19.4966 5.58102C19.5005 5.24814 19.649 4.99146 19.8287 4.99146C20.0085 4.99146 20.153 5.24814 20.1609 5.58102L20.3601 17.4967L20.1609 23.0554Z" fill="#FBF9F1"/>
<path fill-rule="evenodd" clip-rule="evenodd" d="M17.9611 23.1036C17.9572 23.4084 17.8205 23.645 17.6564 23.645C17.4923 23.645 17.3555 23.4084 17.3516 23.1076L17.1602 17.4967L17.3516 5.26824C17.3555 4.96343 17.4923 4.72681 17.6564 4.72681C17.8205 4.72681 17.9572 4.96343 17.9611 5.26824L18.1721 17.4967L17.9611 23.1076V23.1036Z" fill="#FBF9F1"/>
<path fill-rule="evenodd" clip-rule="evenodd" d="M15.7731 23.1397C15.7692 23.4164 15.6442 23.633 15.4957 23.633C15.3473 23.633 15.2222 23.4164 15.2183 23.1397L15.0151 17.4927C15.0151 17.4927 15.2183 5.66529 15.2183 5.66128C15.2222 5.38454 15.3473 5.16797 15.4957 5.16797C15.6442 5.16797 15.7692 5.38855 15.7731 5.66128L16.0037 17.4927L15.7731 23.1397Z" fill="#FBF9F1"/>
<path fill-rule="evenodd" clip-rule="evenodd" d="M13.5734 23.2279C13.5656 23.4765 13.4562 23.6731 13.3195 23.6731C13.1827 23.6731 13.0733 23.4765 13.0655 23.2239L12.8467 17.5207L13.0655 6.60373C13.0733 6.35507 13.1827 6.15454 13.3195 6.15454C13.4562 6.15454 13.5656 6.35106 13.5734 6.60373L13.8235 17.5207L13.5734 23.2279Z" fill="#FBF9F1"/>
<path fill-rule="evenodd" clip-rule="evenodd" d="M11.4553 23.232C11.4474 23.4566 11.3498 23.633 11.2247 23.633C11.1036 23.633 11.002 23.4525 10.9981 23.232L10.7637 17.4887L10.9981 8.60112C11.0059 8.37652 11.1036 8.19604 11.2247 8.19604C11.3459 8.19604 11.4474 8.37652 11.4553 8.59711L11.721 17.4847L11.4553 23.228V23.232Z" fill="#FBF9F1"/>
<path fill-rule="evenodd" clip-rule="evenodd" d="M9.32195 23.2279C9.31413 23.4324 9.22817 23.5848 9.12268 23.5848C9.01718 23.5848 8.92731 23.4324 8.9195 23.2279L8.66943 17.4846L8.9195 12.0261C8.92731 11.8216 9.01327 11.6692 9.12268 11.6692C9.23208 11.6692 9.31804 11.8216 9.32195 12.0221L9.60718 17.4846L9.32195 23.2279Z" fill="#FBF9F1"/>
<path fill-rule="evenodd" clip-rule="evenodd" d="M7.20817 23.1838C7.20035 23.3603 7.12221 23.4926 7.03234 23.4926C6.93857 23.4926 6.86042 23.3603 6.85261 23.1838L6.58691 17.4887L6.85261 11.6011C6.86042 11.4246 6.93857 11.2922 7.03234 11.2922C7.12612 11.2922 7.20035 11.4246 7.20817 11.6011L7.50903 17.4887L7.20817 23.1838Z" fill="#FBF9F1"/>
<path fill-rule="evenodd" clip-rule="evenodd" d="M5.10611 23.0075C5.09829 23.1639 5.03187 23.2722 4.95373 23.2722C4.87558 23.2722 4.81306 23.1639 4.80134 23.0075L4.52002 17.4888L4.80134 11.7576C4.80916 11.6012 4.87167 11.4929 4.95373 11.4929C5.03578 11.4929 5.09439 11.6052 5.10611 11.7576L5.4265 17.4888L5.10611 23.0075Z" fill="#FBF9F1"/>
<path fill-rule="evenodd" clip-rule="evenodd" d="M3.02358 22.2094C3.01186 22.3377 2.96106 22.426 2.89855 22.426C2.83603 22.426 2.78133 22.3337 2.77351 22.2094L2.47656 17.4848L2.77351 12.656C2.78133 12.5317 2.83603 12.4395 2.89855 12.4395C2.96106 12.4395 3.01576 12.5317 3.02358 12.656L3.3596 17.4848L3.02358 22.2094Z" fill="#FBF9F1"/>
<path fill-rule="evenodd" clip-rule="evenodd" d="M1.08166 20.4244C1.06994 20.5447 1.02305 20.6329 0.960537 20.6329C0.898021 20.6329 0.851134 20.5447 0.839412 20.4204L0.620605 17.4846L0.839412 14.5006C0.847227 14.3763 0.898021 14.2881 0.960537 14.2881C1.02305 14.2881 1.06994 14.3763 1.08166 14.5006L1.34345 17.4886L1.08166 20.4244Z" fill="#FBF9F1"/>
</svg>
