<svg width="25" height="24" viewBox="0 0 25 24" fill="none" xmlns="http://www.w3.org/2000/svg">
<g clip-path="url(#clip0_4403_52)">
<path d="M24.3395 4.41248C24.2784 3.92402 24.1197 3.46404 23.904 3.02442C23.4603 2.10855 22.813 1.36771 21.9542 0.818182C21.1319 0.28901 20.2364 0 19.2513 0C14.676 0 10.1007 0 5.52539 0C5.28116 0 5.03285 0 4.79269 0.0407056C4.3083 0.118046 3.84425 0.268657 3.40463 0.484396C2.67193 0.842605 2.041 1.33107 1.53218 1.97015C0.799476 2.89824 0.380209 3.9403 0.380209 5.13297C0.380209 5.9308 0.380209 6.72456 0.380209 7.52239C0.380209 7.55902 0.372068 7.6038 0.396491 7.63636C0.396491 7.65672 0.396491 7.67707 0.396491 7.69742C0.396491 10.1113 0.396491 12.5251 0.396491 14.9349C0.396491 14.9674 0.396491 14.9959 0.400562 15.0285C0.400562 15.0773 0.400562 15.1303 0.400562 15.1791C0.400562 16.3026 0.400562 17.4261 0.400562 18.5455C0.400562 18.9607 0.433126 19.3677 0.518608 19.7748C0.612231 20.2022 0.750629 20.6174 0.946016 21.0041C0.978581 21.0773 1.01115 21.1547 1.0315 21.2361C1.03964 21.2564 1.04778 21.2727 1.05999 21.289C1.11291 21.3379 1.14954 21.3948 1.15769 21.4681C1.32458 21.7897 1.55253 22.0665 1.79676 22.327C2.31372 22.8806 2.92024 23.308 3.62037 23.6092C3.99893 23.772 4.38564 23.8942 4.79269 23.9512C5.00029 23.9796 5.21196 23.9715 5.41956 23.9919H19.3816C19.5892 23.9715 19.8008 23.9796 20.0084 23.9512C20.6964 23.8453 21.3273 23.5889 21.9175 23.2225C22.467 22.8806 22.923 22.4369 23.3219 21.9322C23.501 21.7042 23.6516 21.46 23.7818 21.1995C23.8185 21.1832 23.8348 21.1425 23.8551 21.1099C23.9162 21 23.965 20.886 24.0139 20.772C24.1767 20.3935 24.3029 20.0027 24.3558 19.5916C24.3843 19.3881 24.3761 19.1845 24.3965 18.981V5.02714C24.3761 4.82361 24.3843 4.61601 24.3558 4.41248H24.3395ZM9.18482 15.3256C9.17668 15.3867 9.18075 15.4518 9.17261 15.5129C9.15633 15.6269 9.14005 15.635 9.04235 15.5699C8.59052 15.2687 8.19568 14.9104 7.87003 14.4708C7.63801 14.1615 7.43041 13.8358 7.25131 13.4898C7.22688 13.441 7.2106 13.3677 7.13326 13.3677C7.11291 13.3229 7.09663 13.2741 7.07627 13.2293C6.93788 12.9159 6.81576 12.5943 6.74249 12.2605C6.60816 11.654 6.60409 11.0393 6.6448 10.4206C6.70178 9.5251 7.01929 8.71913 7.49554 7.96608C7.7642 7.53867 8.1102 7.17639 8.47248 6.82632C8.79812 6.56174 9.12783 6.30122 9.49826 6.09769C9.93788 5.85346 10.3856 5.62958 10.8822 5.51967C11.4765 5.39349 12.079 5.38128 12.6855 5.40163C13.2432 5.42198 13.7805 5.5441 14.2974 5.74763C14.965 6.01221 15.5512 6.39891 16.0844 6.88331C16.2147 7.04206 16.3734 7.17639 16.5078 7.33514C16.923 7.80733 17.2445 8.33243 17.4847 8.91045C17.8877 9.87517 18.0057 10.8725 17.8266 11.9064C17.7411 12.3786 17.6068 12.8345 17.4277 13.2822C17.3992 13.3433 17.3707 13.4043 17.3422 13.4654C17.33 13.4898 17.3219 13.5142 17.3097 13.5346C17.2445 13.5346 17.2242 13.5916 17.1997 13.6404C16.8904 14.2103 16.4915 14.7069 16.0152 15.1465C15.8483 15.2971 15.6774 15.4478 15.4942 15.5739C15.4087 15.6309 15.3802 15.6187 15.368 15.517C15.3599 15.4478 15.368 15.3786 15.3558 15.3094C15.311 15.1506 15.3354 14.9837 15.3273 14.8209C15.3273 14.7883 15.3273 14.7476 15.311 14.7232C15.311 14.6744 15.311 14.6296 15.311 14.5807C15.311 14.5115 15.3273 14.4545 15.3802 14.4057C15.4413 14.3446 15.4901 14.2754 15.5471 14.2103C16.3368 13.3189 16.8008 12.2972 16.8212 11.0923C16.8293 10.5427 16.7479 10.0054 16.5485 9.48847C16.3531 8.9308 16.0356 8.4464 15.6651 7.9905C14.794 6.92402 13.0315 6.28494 11.7086 6.50068C10.3816 6.71642 9.32729 7.327 8.54574 8.41791C8.33001 8.71913 8.14276 9.03663 8.02879 9.39484C7.84968 9.8019 7.76013 10.2334 7.72756 10.673C7.6665 11.54 7.83747 12.3582 8.23638 13.1316C8.47248 13.5834 8.78591 13.9783 9.11969 14.3609C9.18075 14.4342 9.20925 14.5115 9.22146 14.597C9.20925 14.6214 9.21332 14.654 9.20925 14.6825C9.20925 14.7232 9.20925 14.7598 9.20925 14.8005C9.20518 14.9796 9.2296 15.1588 9.18075 15.3379L9.18482 15.3256ZM10.4548 9.69199C10.4711 9.64315 10.4915 9.5943 10.4467 9.55359C10.4467 9.55359 10.4467 9.55359 10.4508 9.55359C10.5118 9.55359 10.524 9.50475 10.5485 9.46404C10.6462 9.30529 10.7479 9.14654 10.8822 9.01221C11.2038 8.69471 11.5783 8.47897 12.0424 8.43826C12.5227 8.39349 12.9745 8.47897 13.3897 8.7232C13.7031 8.90638 13.9311 9.17503 14.1143 9.4844C14.1387 9.5251 14.1509 9.57395 14.212 9.57395C14.212 9.57395 14.212 9.57395 14.216 9.57395C14.1713 9.61872 14.1957 9.67164 14.216 9.72456C14.2852 9.92402 14.3381 10.1316 14.3341 10.3433C14.3259 10.9213 14.1305 11.422 13.6991 11.8128C13.2269 12.2361 12.6733 12.403 12.0424 12.2931C11.5783 12.2117 11.212 11.9634 10.8822 11.6336C10.5322 11.2795 10.3856 10.8521 10.3612 10.3677C10.349 10.1357 10.3938 9.9118 10.463 9.68792L10.4548 9.69199ZM4.9718 6.86703C5.48876 5.97151 6.15633 5.1981 6.95416 4.5346C7.54032 4.04613 8.18347 3.64722 8.8836 3.33379C9.79541 2.9308 10.752 2.70285 11.7411 2.64586C12.2174 2.62144 12.6977 2.62551 13.178 2.67843C13.7438 2.73948 14.2934 2.85346 14.8348 3.02442C15.6489 3.28087 16.3978 3.66757 17.0898 4.16418C17.6068 4.53867 18.0708 4.97015 18.4983 5.44233C18.5797 5.53189 18.6448 5.63772 18.7547 5.69471C18.7547 5.74355 18.7873 5.78426 18.8198 5.8209C19.3205 6.44369 19.7276 7.12347 20.0247 7.86838C20.4196 8.85753 20.6353 9.87924 20.6109 10.9457C20.6027 11.2714 20.5946 11.6011 20.5783 11.9267C20.558 12.2971 20.4847 12.6594 20.3911 13.0176C20.3748 13.0746 20.3463 13.1398 20.4033 13.1927C20.33 13.2008 20.3259 13.2782 20.3056 13.3311C20.1753 13.7544 20.0206 14.1655 19.8293 14.5644C19.4833 15.2809 19.0519 15.9444 18.5186 16.5387C18.0831 17.0231 17.6068 17.4668 17.0613 17.8331C16.6095 18.1343 16.1373 18.3989 15.6529 18.6431C15.4738 18.7327 15.2947 18.8345 15.0953 18.8833C14.9976 18.9077 14.9569 18.8752 14.9691 18.7815C14.9935 18.5495 15.0057 18.3134 15.0708 18.0896C15.1156 17.9267 15.2052 17.8046 15.3639 17.7313C15.4657 17.6866 15.5715 17.6377 15.6692 17.5848C16.5159 17.1126 17.2649 16.5265 17.8958 15.7856C18.4738 15.1058 18.9094 14.3487 19.2228 13.5142C19.2432 13.4573 19.2717 13.4003 19.2472 13.3351C19.2472 13.3351 19.2432 13.3351 19.2391 13.3311C19.3531 13.0543 19.4345 12.7612 19.4874 12.4681C19.5932 11.8779 19.5973 11.2795 19.577 10.6852C19.5607 10.2212 19.5281 9.76119 19.4223 9.30529C19.2635 8.63365 18.9949 8.01085 18.657 7.41248C18.4983 7.13568 18.3192 6.8711 18.1238 6.61872C18.1156 6.60244 18.1075 6.58209 18.0953 6.56988C17.8103 6.19539 17.4928 5.85346 17.1428 5.5441C16.4141 4.89688 15.5919 4.40841 14.6719 4.08684C14.0532 3.8711 13.4182 3.75305 12.7628 3.72863C12.1238 3.70421 11.4928 3.71235 10.8619 3.82632C9.88903 4.00136 9.00165 4.38806 8.18754 4.94573C7.45891 5.44233 6.83204 6.04478 6.32322 6.76526C6.2988 6.79783 6.2703 6.83446 6.24588 6.86703C5.9528 7.27408 5.70857 7.70963 5.50911 8.16961C5.21603 8.84532 5.0125 9.54138 4.97994 10.2822C4.95144 10.9498 4.94737 11.6133 5.02878 12.2768C5.0817 12.7368 5.21603 13.1805 5.3992 13.6079C5.3992 13.6282 5.3992 13.6486 5.41142 13.6649C5.81847 14.6499 6.38835 15.5292 7.14954 16.2822C7.74385 16.8725 8.42363 17.3446 9.18075 17.7069C9.368 17.7965 9.48197 17.9349 9.52675 18.1343C9.5756 18.3582 9.60002 18.5902 9.60816 18.8182C9.6163 19.0014 9.57153 19.0258 9.40056 18.9566C8.91617 18.7612 8.45212 18.5251 8.00029 18.2646C7.10477 17.7436 6.32322 17.0882 5.67193 16.2782C5.2201 15.7164 4.85782 15.1018 4.5566 14.4464C4.5566 14.4138 4.53218 14.3976 4.51589 14.3772C4.50775 14.2999 4.46705 14.2347 4.43855 14.1655C4.40599 14.076 4.3775 13.9905 4.34493 13.9009C4.15769 13.3718 3.99893 12.8385 3.92159 12.2809C3.8646 11.882 3.85646 11.479 3.84832 11.0801C3.84018 10.5509 3.84018 10.0176 3.94602 9.49661C4.09663 8.75984 4.32458 8.04749 4.64615 7.36364C4.66243 7.35142 4.67465 7.33514 4.695 7.32293C4.81712 7.1886 4.88224 7.01764 4.9718 6.86296V6.86703ZM13.8415 19.962C13.8049 20.0882 13.7723 20.2185 13.7235 20.3406C13.6054 20.6377 13.4304 20.886 13.1251 21.0285C12.7466 21.2035 12.3558 21.1995 11.9569 21.1303C11.4318 21.0407 11.098 20.7191 10.9107 20.2307C10.8741 20.133 10.8497 20.0312 10.8171 19.9294C10.8049 19.8928 10.7968 19.8399 10.7438 19.8399C10.8008 19.7829 10.7764 19.7137 10.7601 19.6526C10.7113 19.4328 10.6706 19.209 10.638 18.9851C10.5485 18.3948 10.463 17.8087 10.3938 17.2144C10.3246 16.6242 10.2635 16.0339 10.231 15.4355C10.2187 15.1913 10.2228 14.9471 10.2065 14.7028C10.1943 14.6866 10.1862 14.6662 10.174 14.6499C10.1821 14.6011 10.1821 14.5482 10.1862 14.4993C10.2065 14.2917 10.2472 14.0923 10.3571 13.9132C10.5688 13.5753 10.8822 13.3758 11.2486 13.2537C11.7208 13.0991 12.2011 13.0828 12.6896 13.1316C13.2228 13.1845 13.6746 13.3962 14.0654 13.7544C14.2323 13.905 14.3259 14.0963 14.3789 14.3161C14.4114 14.4545 14.4155 14.597 14.4318 14.7395C14.4155 14.7558 14.4155 14.7924 14.4033 14.8128C14.3951 14.829 14.3911 14.8494 14.3911 14.8697C14.3911 14.9186 14.3951 14.9715 14.3911 15.0204C14.3748 15.4844 14.3504 15.9444 14.3056 16.4043C14.2649 16.8195 14.2242 17.2307 14.1753 17.6459C14.0939 18.3338 14.0044 19.0217 13.8863 19.7015C13.8782 19.7503 13.8578 19.8114 13.9107 19.8521C13.8578 19.8643 13.8497 19.9132 13.8375 19.9579L13.8415 19.962Z" fill="#FBF9F1"/>
</g>
<defs>
<clipPath id="clip0_4403_52">
<rect width="24" height="24" fill="white" transform="translate(0.380371)"/>
</clipPath>
</defs>
</svg>
