<svg width="34" height="24" viewBox="0 0 34 24" fill="none" xmlns="http://www.w3.org/2000/svg">
<g clip-path="url(#clip0_4403_48)">
<path d="M33.128 6.46894C33.0422 5.51087 32.8979 4.56488 32.6482 3.63901C32.3011 2.35891 31.5678 1.42097 30.3547 0.909729C29.871 0.704429 29.3601 0.619894 28.8491 0.531333C28.1977 0.414593 27.5424 0.309931 26.8793 0.253574C26.2045 0.193191 25.5219 0.189166 24.8471 0.165013C23.361 0.116707 21.8749 0.0724263 20.3888 0.0442479C17.6896 -0.00808355 14.9905 -0.02016 12.2913 0.0522989C11.2264 0.0804773 10.1577 0.120732 9.09285 0.177089C8.14502 0.225395 7.19719 0.289803 6.25325 0.362262C5.64477 0.410568 5.03238 0.462899 4.4356 0.595741C3.77641 0.744684 3.14452 0.962061 2.59064 1.38071C1.92365 1.8839 1.5258 2.57628 1.25276 3.36126C1.03823 3.97716 0.909511 4.61318 0.811997 5.25726C0.68718 6.07041 0.593567 6.88356 0.54286 7.70476C0.492153 8.54207 0.46875 9.37937 0.441446 10.2167C0.375136 12.4267 0.371236 14.6367 0.585766 16.8386C0.69108 17.9134 0.835401 18.9842 1.06553 20.0389C1.27226 20.9969 1.69352 21.8343 2.45022 22.4542C3.06651 22.9614 3.78811 23.2271 4.55652 23.3599C5.75008 23.5652 6.95145 23.6739 8.15672 23.7423C9.4595 23.8188 10.7662 23.847 12.0729 23.8671C13.0636 23.8832 14.0582 23.9154 15.049 23.9315C15.8369 23.9436 16.6209 24.0523 17.518 23.9798C17.9822 23.9637 18.5556 23.9356 19.125 23.9195C20.576 23.8832 22.027 23.855 23.4781 23.8148C24.9486 23.7745 26.4191 23.7061 27.8818 23.5692C28.5722 23.5048 29.2587 23.4002 29.9256 23.1828C30.577 22.9694 31.1699 22.6474 31.6419 22.1241C32.0397 21.6853 32.3089 21.166 32.5039 20.6065C32.8042 19.745 32.933 18.8433 33.0461 17.9376C33.2333 16.4361 33.3269 14.9225 33.3425 13.4089C33.3659 11.0942 33.323 8.77957 33.1202 6.46894H33.128ZM21.5317 12.3784C20.0885 13.2277 18.6453 14.0771 17.1982 14.9225C16.0046 15.6229 14.8149 16.3233 13.6214 17.0198C13.5083 17.0842 13.5083 17.0842 13.5083 16.9473C13.5083 13.6343 13.5083 10.3173 13.5083 7.00433C13.5083 6.85941 13.5083 6.85941 13.6409 6.93589C15.1348 7.81345 16.6326 8.69101 18.1265 9.56857C19.4332 10.3374 20.7438 11.1023 22.0505 11.8712C22.1012 11.8993 22.148 11.9315 22.2143 11.9758C21.9763 12.1167 21.7501 12.2495 21.5278 12.3824L21.5317 12.3784Z" fill="#FBF9F1"/>
</g>
<defs>
<clipPath id="clip0_4403_48">
<rect width="33" height="24" fill="white" transform="translate(0.380371)"/>
</clipPath>
</defs>
</svg>
