<svg width="24" height="24" viewBox="0 0 24 24" fill="none" xmlns="http://www.w3.org/2000/svg">
<path d="M23.4879 7.48353C23.4414 2.77651 19.6388 0.611823 15.2831 0.967586C12.0472 1.04969 8.75929 0.718552 5.55075 1.19473C-1.23043 2.69167 0.833762 10.8523 0.527144 15.9617C0.179461 20.7645 3.11423 24.2893 8.08035 23.9116C11.7242 23.7967 15.4611 24.2893 19.0502 23.5887C22.0123 22.7841 23.6604 19.7957 23.4879 16.8511C23.4879 13.7286 23.4879 10.6033 23.4879 7.4808V7.48353ZM21.421 16.4625C21.5551 21.1257 18.6039 22.0507 14.5412 21.8591C12.0609 21.8619 9.57785 21.9166 7.10027 21.7798C3.79317 21.7223 2.52016 19.1225 2.68168 16.1286C2.63788 13.6848 2.63514 11.2437 2.68168 8.79986C2.53932 6.33962 3.48655 3.59476 6.24885 3.2691C9.36158 2.88597 12.5236 3.14595 15.6527 3.09943C20.1753 2.88597 21.6674 5.26412 21.4401 9.51412C21.4839 11.8293 21.4785 14.1445 21.4182 16.4625H21.421Z" fill="#FBF9F1"/>
<path d="M12.0441 6.55542C4.27462 6.71962 4.29652 18.2245 12.055 18.3668C19.8245 18.208 19.7944 6.68952 12.0441 6.55542ZM12.0386 16.276C7.0506 16.2568 7.06429 8.65169 12.0496 8.64621C17.0458 8.6599 17.0458 16.2732 12.0386 16.276Z" fill="#FBF9F1"/>
<path d="M18.1686 4.94972C16.3809 4.9634 16.3781 7.71099 18.1795 7.70551C19.9973 7.70278 19.9781 4.94424 18.1686 4.94972Z" fill="#FBF9F1"/>
</svg>
