<svg width="14" height="24" viewBox="0 0 14 24" fill="none" xmlns="http://www.w3.org/2000/svg">
<path d="M11.5181 0.967041C11.8181 1.06812 12.1389 0.988895 12.4448 1.05173C12.6349 1.08997 12.8339 1.08724 13.0269 1.1009C13.3744 1.12275 13.3744 1.12275 13.3744 1.45329C13.3744 2.50229 13.3715 3.54855 13.3804 4.59754C13.3804 4.75871 13.3358 4.7915 13.1665 4.7915C12.2963 4.79969 11.4261 4.75871 10.5558 4.82428C9.22821 4.91989 8.88071 5.5837 8.8421 6.45513C8.80349 7.36754 8.83616 8.27995 8.82428 9.19508C8.82428 9.36445 8.88665 9.38357 9.04704 9.38357C10.3568 9.37811 11.6666 9.38357 12.9764 9.37538C13.1814 9.37538 13.2259 9.40543 13.1962 9.60758C13.0151 10.8287 12.8517 12.0525 12.6883 13.2736C12.6676 13.4293 12.62 13.4976 12.421 13.4949C11.3073 13.4839 10.1905 13.4949 9.07674 13.4839C8.8718 13.4839 8.82428 13.5304 8.82725 13.7161C8.83319 17.0543 8.82725 20.3925 8.83616 23.7307C8.83616 23.9274 8.78864 23.9766 8.57183 23.9739C7.20559 23.9629 5.83639 23.9657 4.47016 23.9739C4.27116 23.9739 4.21473 23.9384 4.2177 23.7471C4.22364 20.4171 4.2177 17.0844 4.22958 13.7544C4.22958 13.5386 4.17909 13.4812 3.93852 13.4839C2.83959 13.4976 1.74066 13.4839 0.641737 13.4949C0.448683 13.4949 0.380371 13.4675 0.380371 13.2681C0.392251 12.0416 0.389281 10.8123 0.380371 9.58572C0.380371 9.41909 0.418982 9.37265 0.606096 9.37538C1.72878 9.38357 2.85147 9.37538 3.97416 9.38357C4.18206 9.38357 4.22364 9.33167 4.22364 9.14591C4.22364 8.05321 4.17909 6.96051 4.2474 5.86781C4.33948 4.40632 4.84142 3.106 6.09182 2.1253C6.94126 1.46149 7.94811 1.13641 9.0411 1.01348C9.12129 1.00529 9.20445 1.02441 9.27276 0.967041H10.639C10.8825 1.00529 11.1261 1.00529 11.3726 0.967041H11.5181Z" fill="#FBF9F1"/>
</svg>
