<svg width="25" height="24" viewBox="0 0 25 24" fill="none" xmlns="http://www.w3.org/2000/svg">
<g clip-path="url(#clip0_4403_50)">
<path d="M12.3782 0C5.84756 0 0.483953 5.24161 0.382293 11.8129C0.280632 18.4737 5.59951 23.8902 12.183 23.9959C18.8438 24.1017 24.2888 18.7828 24.3782 12.1586C24.4677 5.48153 19.0878 0.00406642 12.3782 0ZM17.9858 17.0342C17.9248 17.3514 17.7378 17.5588 17.4247 17.6442C17.2213 17.6971 17.0261 17.6605 16.8432 17.5507C16.347 17.2497 15.8265 16.9895 15.2898 16.7699C14.4806 16.4405 13.6429 16.2128 12.7808 16.0705C12.1668 15.9688 11.5446 15.916 10.9224 15.8997C10.3532 15.8834 9.78792 15.9038 9.21862 15.9485C8.23861 16.0258 7.27487 16.1884 6.3152 16.4039C5.90449 16.4975 5.50598 16.2413 5.41245 15.8306C5.32299 15.428 5.58731 15.0335 6.00208 14.94C6.49005 14.8343 6.97802 14.7326 7.47006 14.6554C7.91737 14.5822 8.36874 14.5252 8.82011 14.4805C9.41787 14.4236 10.0156 14.3951 10.4873 14.3992C11.3291 14.3992 12.0366 14.4521 12.7442 14.5537C14.2081 14.7652 15.6029 15.1921 16.9163 15.8794C17.1563 16.0054 17.3962 16.1396 17.628 16.2819C17.8964 16.4446 18.0387 16.7455 17.9858 17.0424V17.0342ZM19.0228 14.3585C18.7178 14.5334 18.3965 14.5415 18.0915 14.3585C17.5222 14.0169 16.9326 13.7201 16.3145 13.472C15.5541 13.1671 14.7733 12.9312 13.9763 12.7523C13.3745 12.6181 12.7645 12.5205 12.1546 12.4554C11.3698 12.37 10.5809 12.3416 9.79198 12.366C9.29181 12.3822 8.79165 12.4229 8.29554 12.488C7.55952 12.5856 6.8357 12.736 6.12407 12.9475C5.55884 13.1142 5.00581 12.7604 4.91635 12.183C4.84722 11.7316 5.13594 11.2924 5.58731 11.1542C6.27047 10.9509 6.96176 10.7923 7.66931 10.6825C8.26301 10.589 8.86077 10.528 9.4626 10.4995C9.73099 10.4873 10.0034 10.4751 10.2434 10.4792C10.9265 10.4751 11.5812 10.5076 12.2359 10.5727C13.4436 10.6947 14.627 10.9305 15.7818 11.2884C16.9204 11.6422 18.0061 12.1139 19.0228 12.736C19.3318 12.9231 19.4945 13.1955 19.4945 13.5574C19.4945 13.9112 19.3318 14.1837 19.0268 14.3585H19.0228ZM21.1617 9.85293C21.0885 10.3084 20.7428 10.6703 20.2833 10.7719C19.9987 10.8329 19.7262 10.7841 19.4741 10.6378C18.9536 10.3287 18.4087 10.0685 17.8476 9.8448C16.9042 9.47069 15.9282 9.2023 14.936 9.00305C14.3911 8.89326 13.8462 8.81193 13.2972 8.74687C12.8743 8.69807 12.4474 8.66147 12.0204 8.63707C11.4592 8.60454 10.898 8.58827 10.3369 8.59641C9.70659 8.60454 9.08036 8.63707 8.45413 8.70214C7.46599 8.8038 6.49005 8.97459 5.53851 9.25517C4.86349 9.45442 4.19253 9.01118 4.10307 8.31583C4.03394 7.77499 4.37552 7.26262 4.91228 7.10403C5.64017 6.88851 6.37619 6.72992 7.12441 6.612C7.69778 6.52254 8.27521 6.46154 8.85671 6.41681C9.487 6.37208 10.1173 6.35175 10.7191 6.35175C11.3535 6.35988 11.9635 6.38021 12.5693 6.42901C13.1508 6.47374 13.7283 6.53473 14.3016 6.6242C15.7656 6.84378 17.1969 7.18943 18.5795 7.72619C19.283 7.99864 19.9621 8.31989 20.6127 8.7062C21.0234 8.95019 21.239 9.39749 21.1658 9.86106L21.1617 9.85293Z" fill="#FBF9F1"/>
</g>
<defs>
<clipPath id="clip0_4403_50">
<rect width="24" height="24" fill="white" transform="translate(0.380371)"/>
</clipPath>
</defs>
</svg>
