<svg width="41" height="41" viewBox="0 0 41 41" fill="none" xmlns="http://www.w3.org/2000/svg">
<ellipse cx="20.5" cy="20.6516" rx="20" ry="19.9824" fill="#808D7C"/>
<g clip-path="url(#clip0_4595_50)">
<path d="M16.0889 14.6572C17.2478 14.6572 18.3819 15.0199 19.2821 15.6782C19.7677 16.0333 20.185 16.4768 20.4992 16.9699C20.8134 16.4765 21.2307 16.033 21.7163 15.678C22.6165 15.0195 23.7508 14.6567 24.9097 14.6567C27.7154 14.6567 29.998 16.7259 29.998 19.2692V26.031C29.998 26.37 29.6939 26.6457 29.32 26.6457C28.946 26.6457 28.6419 26.37 28.6419 26.031V19.2692C28.6419 17.4036 26.9675 15.8858 24.9094 15.8858C24.047 15.8858 23.2372 16.1448 22.5676 16.6345C22.0336 17.0253 21.6316 17.5357 21.3992 18.1173C22.1651 18.2913 22.859 18.6888 23.3655 19.2464C23.9103 19.8464 24.2105 20.6045 24.2105 21.381V26.0313C24.2105 26.3702 23.9063 26.6459 23.5324 26.6459C23.1584 26.6459 22.8543 26.3702 22.8543 26.0313V21.381C22.8543 20.2036 21.7977 19.2459 20.4992 19.2459C19.2007 19.2459 18.1441 20.2036 18.1441 21.381V26.0313C18.1441 26.3702 17.84 26.6459 17.466 26.6459C17.0921 26.6459 16.7879 26.3702 16.7879 26.0313V21.381C16.7879 20.6045 17.0881 19.8464 17.6326 19.2464C18.1391 18.6888 18.8328 18.2911 19.5987 18.1173C19.3659 17.5359 18.9642 17.0255 18.4303 16.635C17.7606 16.1452 16.9511 15.8866 16.0887 15.8866C14.0306 15.8866 12.3563 17.4043 12.3563 19.2699V26.0317C12.3563 26.3707 12.0521 26.6464 11.6782 26.6464C11.3042 26.6464 11.0001 26.3707 11.0001 26.0317V19.2699C11.0006 16.7266 13.2832 14.6572 16.0889 14.6572Z" fill="#FBF9F1"/>
</g>
<defs>
<clipPath id="clip0_4595_50">
<rect width="19" height="11.9894" fill="white" transform="matrix(-1 0 0 1 30 14.6567)"/>
</clipPath>
</defs>
</svg>
